<svg width="23" height="20" viewBox="0 0 23 20" fill="none" xmlns="http://www.w3.org/2000/svg">
<path d="M22.6287 13.1844C22.6287 16.5034 19.9381 19.194 16.6191 19.194L7.60467 19.194C6.68272 19.194 5.93534 18.4466 5.93534 17.5246L5.93534 6.17317C5.93534 4.32928 7.43011 2.83451 9.274 2.83451L20.9593 2.83451C21.8813 2.83451 22.6287 3.58189 22.6287 4.50384L22.6287 13.1844Z" fill="#E8F5E9"/>
<path d="M10.3797 8.39158C10.2993 8.39158 10.2246 8.36947 10.1583 8.33392V8.33486C10.1583 8.46134 10.1092 8.58013 10.02 8.66909C9.93078 8.75829 9.81209 8.80745 9.68575 8.80745C9.60419 8.80745 9.5286 8.7848 9.46157 8.7483C9.45481 8.864 9.40856 8.97216 9.32605 9.05476C9.23685 9.14395 9.11816 9.19312 8.99174 9.19312C8.74058 9.19312 8.53661 8.99568 8.52191 8.74822C8.4442 8.79022 8.35634 8.81225 8.26572 8.80643C8.01864 8.79022 7.82515 8.57675 7.82515 8.32031V6.1947L7.58311 6.61402C7.49092 6.77441 7.31836 6.87399 7.13256 6.87399C7.04202 6.87399 6.95259 6.85023 6.87338 6.80484C6.77474 6.74766 6.70419 6.65587 6.67484 6.54605C6.64535 6.43617 6.66061 6.32125 6.71763 6.22276C6.71771 6.22276 7.50956 4.8515 7.55787 4.76727C7.56361 4.75461 7.57998 4.71787 7.5939 4.68657C7.60719 4.65668 7.6186 4.626 7.62953 4.59517C7.86833 3.921 8.45962 3.50222 9.17273 3.50222C10.0988 3.50222 10.8522 4.31915 10.8522 5.32332L10.8522 7.91892C10.8522 8.04524 10.8032 8.16394 10.714 8.25323C10.6248 8.34242 10.5061 8.39159 10.3797 8.39159L10.3797 8.39158ZM9.17274 3.75333C8.55998 3.75333 8.07159 4.09944 7.86622 4.67915C7.85309 4.71596 7.8394 4.75277 7.82343 4.78864C7.7771 4.89255 7.7771 4.89255 7.76404 4.90749L7.76231 4.906C7.69766 5.028 7.50557 5.36064 6.93507 6.34844C6.91163 6.38894 6.90541 6.43598 6.91737 6.48097C6.92948 6.52597 6.95851 6.56388 6.9987 6.58708C7.12345 6.65874 7.2943 6.61249 7.36541 6.4886L7.842 5.66347C7.87047 5.61431 7.92805 5.59016 7.98327 5.60511C8.03817 5.61982 8.07632 5.66961 8.07632 5.7264V8.32038C8.07632 8.44277 8.16866 8.54841 8.28218 8.55588C8.34762 8.55934 8.40866 8.5374 8.45452 8.49162C8.49621 8.44993 8.51917 8.39439 8.51917 8.33501V6.63851C8.51917 6.56913 8.57541 6.51289 8.64479 6.51289C8.71417 6.51289 8.77041 6.56905 8.77041 6.63851L8.77033 8.72062C8.77033 8.8427 8.86967 8.94204 8.99175 8.94204C9.05106 8.94204 9.10675 8.91908 9.14852 8.87739C9.19021 8.83562 9.21317 8.77993 9.21317 8.72062V6.6385C9.21317 6.56913 9.26934 6.51289 9.33879 6.51289C9.40817 6.51289 9.46441 6.56905 9.46441 6.6385L9.46433 8.31549V8.335C9.46433 8.457 9.56368 8.55634 9.68583 8.55634C9.74506 8.55634 9.80059 8.5333 9.8426 8.49145C9.88429 8.44984 9.90725 8.3943 9.90725 8.33492V6.63842C9.90725 6.56904 9.96342 6.5128 10.0329 6.5128C10.1022 6.5128 10.1585 6.56896 10.1585 6.63842L10.1583 7.91898C10.1583 8.04113 10.2577 8.14048 10.3797 8.14048C10.4391 8.14048 10.4946 8.11743 10.5363 8.07582C10.5781 8.03398 10.601 7.97829 10.601 7.91898L10.6011 5.32338C10.6011 4.45775 9.96035 3.75336 9.17273 3.75336L9.17274 3.75333Z" fill="#103E13"/>
<path d="M5.44427 10.1956L7.26708 9.10204C7.48685 8.97005 7.76963 9.02613 7.91058 9.22978C7.96203 9.30396 7.9883 9.3904 7.99239 9.47843C8.06035 9.44295 8.13429 9.42368 8.20956 9.42368C8.2481 9.42368 8.2868 9.42848 8.32503 9.43799C8.4475 9.46859 8.5507 9.54513 8.6156 9.65336C8.68057 9.76175 8.69953 9.88877 8.66893 10.0111C8.64069 10.1243 8.57187 10.2196 8.47614 10.2849C8.54308 10.3244 8.60081 10.3783 8.64187 10.4469C8.70685 10.5553 8.7258 10.6822 8.69528 10.8047C8.66468 10.927 8.58815 11.0302 8.47976 11.0953L8.47913 11.0957C8.54489 11.1351 8.6016 11.1884 8.64219 11.256C8.70724 11.3644 8.7262 11.4914 8.6956 11.6139C8.66492 11.7362 8.58839 11.8394 8.48016 11.9044L6.25447 13.2397C5.83907 13.4888 5.35886 13.5747 4.90249 13.4815C4.44202 13.3875 4.06068 13.1228 3.82881 12.7362C3.46186 12.1247 3.51685 11.4021 3.97204 10.8506C3.99289 10.8255 4.01342 10.7998 4.03206 10.7732C4.0518 10.7452 4.07485 10.7121 4.08272 10.7008C4.12983 10.6166 4.89865 9.23145 4.89857 9.23161C4.9762 9.09153 5.12172 9.01223 5.2718 9.01231C5.3418 9.01231 5.41283 9.02953 5.47836 9.06588C5.55749 9.11008 5.62395 9.1745 5.67044 9.25214C5.76601 9.41142 5.76939 9.61075 5.67941 9.77206L5.44427 10.1956ZM5.4552 9.38127C5.43082 9.34061 5.39731 9.3082 5.35632 9.28523C5.27161 9.23835 5.16495 9.26887 5.11831 9.35327C4.56818 10.3444 4.38065 10.6821 4.30828 10.8023L4.30993 10.8027C4.30387 10.8228 4.30387 10.8228 4.23765 10.9175C4.21515 10.9495 4.19069 10.9802 4.16575 11.0105C3.77434 11.4848 3.72889 12.0815 4.04407 12.607C4.2393 12.9325 4.56196 13.1557 4.95265 13.2354C5.34758 13.3158 5.76385 13.241 6.12513 13.0243L8.35102 11.689C8.40184 11.6585 8.43771 11.6101 8.45202 11.5528C8.46634 11.4955 8.45745 11.436 8.42693 11.3852C8.36416 11.2806 8.22785 11.2462 8.12323 11.3092L7.02517 11.968C6.9657 12.0037 6.88846 11.9845 6.85283 11.9249C6.81712 11.8655 6.83639 11.7883 6.89585 11.7526L7.994 11.0938L8.35063 10.8799C8.40145 10.8494 8.43739 10.801 8.45171 10.7438C8.46602 10.6865 8.45714 10.6268 8.42662 10.5761C8.36377 10.4714 8.22745 10.4374 8.12292 10.5001L6.66814 11.3728C6.60851 11.4086 6.53151 11.3893 6.4958 11.3298C6.46009 11.2703 6.47943 11.1932 6.53882 11.1575L8.32429 10.0864C8.3751 10.0559 8.41097 10.0076 8.42528 9.95024C8.4396 9.89297 8.43071 9.83343 8.40027 9.78262C8.36983 9.73188 8.32145 9.69601 8.26411 9.6817C8.20645 9.66738 8.14715 9.67627 8.09649 9.70663L7.76597 9.90493C7.76589 9.90493 7.76589 9.90501 7.76581 9.90501H7.76573L6.31103 10.7777C6.25141 10.8136 6.17432 10.7942 6.13869 10.7347C6.10298 10.6752 6.12233 10.5981 6.18172 10.5624L7.6365 9.68964C7.68731 9.65912 7.72326 9.61075 7.73758 9.55356C7.75331 9.4908 7.74135 9.42661 7.70407 9.37281C7.63941 9.27928 7.50113 9.25443 7.39628 9.31743L5.172 10.6518C5.12331 10.6809 5.06094 10.6738 5.02011 10.6344C4.97921 10.5949 4.97001 10.5329 4.99754 10.4832L5.46005 9.64992C5.50646 9.56663 5.50465 9.46374 5.45517 9.3813L5.4552 9.38127Z" fill="#103E13"/>
<path d="M14.1545 12.7362C13.9227 13.1228 13.5415 13.3874 13.0809 13.4815C12.6245 13.5745 12.1444 13.4887 11.729 13.2396L9.50307 11.9043C9.39476 11.8393 9.31815 11.7361 9.28747 11.6136C9.25703 11.4913 9.27606 11.3642 9.34096 11.256C9.38146 11.1883 9.43826 11.135 9.50409 11.0956L9.50346 11.0952C9.39515 11.0302 9.31854 10.927 9.28802 10.8046C9.25735 10.6823 9.27638 10.5551 9.34135 10.4468C9.3832 10.3771 9.44054 10.3227 9.50599 10.2841C9.41097 10.2187 9.34253 10.1238 9.31437 10.0111C9.2837 9.88868 9.30273 9.76163 9.3677 9.6534C9.4326 9.54509 9.53588 9.46855 9.65827 9.43796C9.6965 9.42836 9.73528 9.42364 9.77367 9.42364C9.84902 9.42372 9.92296 9.44284 9.99092 9.47839C9.99509 9.39037 10.0213 9.30393 10.0727 9.22975C10.2138 9.02627 10.4963 8.96994 10.7164 9.102L12.5391 10.1954L12.3042 9.77217C12.214 9.6106 12.2174 9.41128 12.3129 9.25192C12.3595 9.17436 12.426 9.10994 12.5056 9.06534C12.5709 9.02916 12.6417 9.01201 12.7116 9.01201C12.8616 9.01209 13.0072 9.09122 13.0848 9.23132C13.3551 9.7183 13.8651 10.6367 13.9009 10.7008C13.9086 10.7119 13.9316 10.7449 13.9514 10.773C13.9702 10.7997 13.9904 10.8252 14.0115 10.8505C14.4666 11.4022 14.5215 12.1247 14.1545 12.7362L14.1545 12.7362ZM13.8177 11.0106C13.7926 10.9803 13.7681 10.9494 13.7458 10.9175C13.6778 10.8211 13.6761 10.8186 13.671 10.7933C13.5915 10.6619 13.3977 10.313 12.865 9.35317C12.8182 9.26893 12.712 9.23817 12.6275 9.2849C12.5859 9.30818 12.5524 9.34066 12.5281 9.38133C12.4787 9.46369 12.4768 9.56657 12.5234 9.65012L12.9858 10.4832C13.0134 10.5329 13.0042 10.5949 12.9634 10.6344C12.9226 10.6739 12.8603 10.6809 12.8114 10.6517L10.5871 9.31738C10.4823 9.25453 10.3441 9.27915 10.2792 9.37276C10.242 9.42656 10.2301 9.49074 10.2457 9.55344C10.26 9.6107 10.2959 9.65899 10.3468 9.68951C10.347 9.68959 10.347 9.68975 10.3472 9.68983L11.8015 10.5623C11.861 10.598 11.8803 10.6751 11.8446 10.7346C11.8088 10.794 11.7318 10.8135 11.6722 10.7777L9.88675 9.70659C9.83609 9.67623 9.77647 9.66726 9.71921 9.68165C9.66178 9.69597 9.61349 9.73184 9.58305 9.78273C9.55253 9.83346 9.54372 9.89301 9.55788 9.95027C9.57219 10.0075 9.60814 10.0559 9.65895 10.0864L10.0064 10.2948L11.4443 11.1575C11.5038 11.1932 11.5231 11.2703 11.4874 11.3299C11.4517 11.3893 11.3746 11.4086 11.315 11.3729L9.8604 10.5002C9.75579 10.4373 9.61955 10.4714 9.55662 10.5762C9.5261 10.627 9.51729 10.6865 9.53145 10.7438C9.54577 10.801 9.58171 10.8493 9.6326 10.8799L9.98924 11.0939L11.0872 11.7527C11.1467 11.7884 11.166 11.8655 11.1303 11.925C11.0945 11.9844 11.0175 12.0039 10.9579 11.968L9.85993 11.3093C9.80927 11.2789 9.74989 11.2699 9.69231 11.2843C9.63504 11.2986 9.58659 11.3345 9.55615 11.3852C9.52571 11.4361 9.51682 11.4957 9.53098 11.5529C9.5453 11.6101 9.58124 11.6584 9.63213 11.689L11.858 13.0243C12.2192 13.241 12.6358 13.316 13.0305 13.2355C13.4211 13.1557 13.7438 12.9326 13.939 12.6071C14.2545 12.0815 14.2091 11.4846 13.8178 11.0106L13.8177 11.0106Z" fill="#103E13"/>
</svg>
