<svg width="23" height="20" viewBox="0 0 23 20" fill="none" xmlns="http://www.w3.org/2000/svg">
<path d="M22.2345 13.1844C22.2345 16.5034 19.5439 19.194 16.2249 19.194L7.2105 19.194C6.28856 19.194 5.54117 18.4466 5.54117 17.5246L5.54117 6.17317C5.54117 4.32928 7.03594 2.83451 8.87984 2.83451L20.5652 2.83451C21.4871 2.83451 22.2345 3.58189 22.2345 4.50384L22.2345 13.1844Z" fill="#E8F5E9"/>
<path d="M9.51967 6.84455C9.4155 6.84455 9.33081 6.75999 9.33081 6.65569V6.33473C9.33081 6.23056 9.41536 6.14587 9.51967 6.14587C9.62384 6.14587 9.70853 6.23042 9.70853 6.33473V6.65569C9.70853 6.75999 9.62385 6.84455 9.51967 6.84455Z" fill="#103E13"/>
<path d="M8.7256 6.84455C8.62143 6.84455 8.53674 6.75999 8.53674 6.65569V6.33473C8.53674 6.23056 8.62129 6.14587 8.7256 6.14587C8.82978 6.14587 8.91446 6.23042 8.91446 6.33473V6.65569C8.91433 6.75999 8.82991 6.84455 8.7256 6.84455Z" fill="#103E13"/>
<path d="M7.93166 6.84455C7.82748 6.84455 7.7428 6.75999 7.7428 6.65569V6.33473C7.7428 6.23056 7.82735 6.14587 7.93166 6.14587C8.03583 6.14587 8.12052 6.23042 8.12052 6.33473V6.65569C8.12052 6.75999 8.03597 6.84455 7.93166 6.84455Z" fill="#103E13"/>
<path d="M9.51967 8.15704C9.4155 8.15704 9.33081 8.07249 9.33081 7.96818V7.64736C9.33081 7.54318 9.41536 7.4585 9.51967 7.4585C9.62384 7.4585 9.70853 7.54305 9.70853 7.64736V7.96818C9.70853 8.07249 9.62385 8.15704 9.51967 8.15704Z" fill="#103E13"/>
<path d="M8.7256 8.15704C8.62143 8.15704 8.53674 8.07249 8.53674 7.96818V7.64736C8.53674 7.54318 8.62129 7.4585 8.7256 7.4585C8.82978 7.4585 8.91446 7.54305 8.91446 7.64736V7.96818C8.91433 8.07249 8.82991 8.15704 8.7256 8.15704Z" fill="#103E13"/>
<path d="M7.93166 8.15704C7.82748 8.15704 7.7428 8.07249 7.7428 7.96818V7.64736C7.7428 7.54318 7.82735 7.4585 7.93166 7.4585C8.03583 7.4585 8.12052 7.54305 8.12052 7.64736V7.96818C8.12052 8.07249 8.03597 8.15704 7.93166 8.15704Z" fill="#103E13"/>
<path d="M9.51967 9.46954C9.4155 9.46954 9.33081 9.38499 9.33081 9.28069V8.95973C9.33081 8.85556 9.41536 8.77087 9.51967 8.77087C9.62384 8.77087 9.70853 8.85542 9.70853 8.95973V9.28069C9.70853 9.38499 9.62385 9.46954 9.51967 9.46954Z" fill="#103E13"/>
<path d="M8.7256 9.46954C8.62143 9.46954 8.53674 9.38499 8.53674 9.28069V8.95973C8.53674 8.85556 8.62129 8.77087 8.7256 8.77087C8.82978 8.77087 8.91446 8.85542 8.91446 8.95973V9.28069C8.91433 9.38499 8.82991 9.46954 8.7256 9.46954Z" fill="#103E13"/>
<path d="M7.93166 9.46954C7.82748 9.46954 7.7428 9.38499 7.7428 9.28069V8.95973C7.7428 8.85556 7.82735 8.77087 7.93166 8.77087C8.03583 8.77087 8.12052 8.85542 8.12052 8.95973V9.28069C8.12052 9.38499 8.03597 9.46954 7.93166 9.46954Z" fill="#103E13"/>
<path d="M9.51967 10.7818C9.4155 10.7818 9.33081 10.6972 9.33081 10.5929V10.272C9.33081 10.1678 9.41536 10.0831 9.51967 10.0831C9.62384 10.0831 9.70853 10.1677 9.70853 10.272V10.5929C9.70853 10.6972 9.62385 10.7818 9.51967 10.7818Z" fill="#103E13"/>
<path d="M8.7256 10.7818C8.62143 10.7818 8.53674 10.6972 8.53674 10.5929V10.272C8.53674 10.1678 8.62129 10.0831 8.7256 10.0831C8.82978 10.0831 8.91446 10.1677 8.91446 10.272V10.5929C8.91433 10.6972 8.82991 10.7818 8.7256 10.7818Z" fill="#103E13"/>
<path d="M7.93166 10.7818C7.82748 10.7818 7.7428 10.6972 7.7428 10.5929V10.272C7.7428 10.1678 7.82735 10.0831 7.93166 10.0831C8.03583 10.0831 8.12052 10.1677 8.12052 10.272V10.5929C8.12052 10.6972 8.03597 10.7818 7.93166 10.7818Z" fill="#103E13"/>
<path d="M9.51967 12.0943C9.4155 12.0943 9.33081 12.0097 9.33081 11.9054V11.5846C9.33081 11.4804 9.41536 11.3958 9.51967 11.3958C9.62384 11.3958 9.70853 11.4803 9.70853 11.5846V11.9054C9.70853 12.0096 9.62385 12.0943 9.51967 12.0943Z" fill="#103E13"/>
<path d="M8.7256 12.0943C8.62143 12.0943 8.53674 12.0097 8.53674 11.9054V11.5846C8.53674 11.4804 8.62129 11.3958 8.7256 11.3958C8.82978 11.3958 8.91446 11.4803 8.91446 11.5846V11.9054C8.91433 12.0096 8.82991 12.0943 8.7256 12.0943Z" fill="#103E13"/>
<path d="M7.93166 12.0943C7.82748 12.0943 7.7428 12.0097 7.7428 11.9054L7.74293 11.5846C7.74293 11.4804 7.82748 11.3958 7.93179 11.3958C8.03596 11.3958 8.12065 11.4803 8.12065 11.5846V11.9054C8.12052 12.0096 8.03597 12.0943 7.93166 12.0943Z" fill="#103E13"/>
<path d="M2.53654 13.4004C2.53654 13.5046 2.62109 13.5892 2.7254 13.5892H14.2263C14.3305 13.5892 14.4152 13.5047 14.4152 13.4004C14.4152 13.2962 14.3307 13.2115 14.2263 13.2115H13.8772V7.7891C13.8772 7.68493 13.7927 7.60024 13.6884 7.60024L10.6049 7.60037V3.69109C10.6049 3.62497 10.5704 3.56387 10.514 3.52962C10.4578 3.49525 10.3874 3.49314 10.329 3.52356L6.82324 5.34881C6.76068 5.38134 6.7217 5.44587 6.7217 5.51633V8.93101H3.32894C3.22476 8.93101 3.14008 9.01556 3.14008 9.11987V13.2116H2.72497C2.6208 13.2114 2.53638 13.296 2.53638 13.4003L2.53654 13.4004ZM10.6049 10.4607H13.4997V13.2117L10.6049 13.2115V10.4607ZM10.6049 9.14832H13.4997V10.0831L10.6049 10.083V9.14832ZM10.6049 7.97789H13.4997V8.77087H10.6049V7.97789ZM7.09922 5.63101L10.2271 4.00239V13.2114H7.09922V5.63101ZM4.45139 11.7031C4.45139 11.3112 4.76194 10.9922 5.14374 10.9922C5.52553 10.9922 5.83622 11.311 5.83622 11.7031V13.2116H4.45139V11.7031ZM3.51778 9.30867H6.72165V13.2115H6.21393V11.7031C6.21393 11.1029 5.73402 10.6146 5.14374 10.6146C4.55372 10.6146 4.07382 11.1028 4.07382 11.7031V13.2115H3.51778V9.30867Z" fill="#103E13"/>
</svg>
