<svg width="22" height="20" viewBox="0 0 22 20" fill="none" xmlns="http://www.w3.org/2000/svg">
<path d="M21.8403 13.1844C21.8403 16.5034 19.1497 19.194 15.8307 19.194L6.81634 19.194C5.89439 19.194 5.14701 18.4466 5.14701 17.5246L5.14701 6.17317C5.14701 4.32928 6.64178 2.83451 8.48567 2.83451L20.171 2.83451C21.0929 2.83451 21.8403 3.58189 21.8403 4.50384L21.8403 13.1844Z" fill="#E8F5E9"/>
<path d="M8.14849 3.83606C6.95617 3.83606 5.98552 4.81559 5.98552 6.01298C5.98552 6.77047 6.37449 7.4393 6.96185 7.82915C6.25244 8.06636 5.63859 8.50969 5.18835 9.08968C4.93944 8.89821 4.6613 8.74423 4.36146 8.63389C4.81614 8.29634 5.11327 7.7541 5.11327 7.14467C5.11327 6.12913 4.29193 5.29779 3.28255 5.29779C2.27316 5.29779 1.45183 6.12913 1.45183 7.14467C1.45183 7.75445 1.7492 8.29693 2.20426 8.63449C0.999481 9.07907 0.139038 10.243 0.139038 11.6129V12.5752C0.139161 12.6485 0.168504 12.7188 0.220531 12.7705C0.272558 12.8222 0.342957 12.8511 0.416313 12.8508H4.63804C4.64828 12.8519 4.65851 12.8526 4.66874 12.8524H11.6285C11.6387 12.8526 11.6491 12.8519 11.6592 12.8508H15.8812C16.033 12.8502 16.1559 12.7271 16.1563 12.5752V11.6129C16.1563 10.243 15.2973 9.07907 14.0932 8.63436C14.5482 8.29693 14.8456 7.75432 14.8456 7.14454C14.8456 6.12901 14.0243 5.29766 13.0149 5.29766C12.0055 5.29766 11.1842 6.12901 11.1842 7.14454C11.1842 7.75397 11.4814 8.2963 11.9361 8.63376C11.6356 8.74435 11.3574 8.89883 11.1081 9.09078C10.6581 8.51045 10.0451 8.0665 9.3357 7.82915C9.92291 7.4393 10.312 6.77047 10.312 6.01298C10.312 4.81559 9.34088 3.83606 8.14856 3.83606H8.14849ZM8.14849 4.38839C9.04024 4.38839 9.75913 5.11211 9.75913 6.01298C9.75913 6.90682 9.05145 7.6235 8.16957 7.63498C8.16255 7.63498 8.15564 7.634 8.14849 7.634C8.14134 7.634 8.13456 7.63498 8.12741 7.63498C7.24553 7.62364 6.53833 6.90685 6.53833 6.01298C6.53833 5.11198 7.25661 4.38839 8.14837 4.38839H8.14849ZM3.28258 5.85009C3.99014 5.85009 4.56097 6.42436 4.56097 7.14464C4.56097 7.86009 3.99752 8.43189 3.29662 8.43966C3.29194 8.43966 3.28738 8.43917 3.28257 8.43917C3.27788 8.43917 3.27332 8.43966 3.26851 8.43966C2.56762 8.43189 2.00417 7.85996 2.00417 7.14464C2.00417 6.42439 2.575 5.85009 3.28256 5.85009H3.28258ZM13.0147 5.85009C13.7223 5.85009 14.2931 6.42436 14.2931 7.14464C14.2931 7.86009 13.7297 8.43189 13.0288 8.43966C13.0241 8.43966 13.0195 8.43917 13.0147 8.43917C13.01 8.43917 13.0055 8.43966 13.0007 8.43966C12.2998 8.43189 11.7363 7.85996 11.7363 7.14464C11.7363 6.42439 12.3071 5.85009 13.0147 5.85009H13.0147ZM8.12734 8.18729C8.13437 8.18741 8.14128 8.18827 8.14843 8.18827C8.15545 8.18827 8.16236 8.18729 8.16951 8.18729C9.93808 8.19863 11.3535 9.6262 11.3535 11.4132L11.3534 12.2999H4.94375V11.4132C4.94375 9.62604 6.35874 8.19865 8.12709 8.18729H8.12734ZM3.26143 8.99262C3.26846 8.99275 3.27536 8.99361 3.28252 8.99361C3.28967 8.99361 3.29645 8.99262 3.3036 8.99262C3.90179 8.99743 4.44772 9.20369 4.88242 9.54878C4.57136 10.0992 4.39148 10.7344 4.39148 11.4134V12.298H0.69115V11.6129C0.69115 10.1605 1.83306 9.00395 3.26137 8.9925L3.26143 8.99262ZM12.9936 8.99262C13.0007 8.99275 13.0075 8.99361 13.0147 8.99361C13.0218 8.99361 13.0286 8.99262 13.0357 8.99262C14.464 9.00397 15.606 10.1607 15.606 11.613V12.298H11.9037L11.9036 11.4134C11.9036 10.7348 11.7242 10.1 11.4138 9.54976C11.8486 9.20418 12.3949 8.99742 12.9936 8.99262H12.9936Z" fill="#103E13"/>
</svg>
