<svg width="17" height="17" viewBox="0 0 17 17" fill="none" xmlns="http://www.w3.org/2000/svg">
<g clip-path="url(#clip0_212_1121)">
<path fill-rule="evenodd" clip-rule="evenodd" d="M4.7509 2.0802C6.59477 2.0802 8.08956 3.57497 8.08956 5.41887V2.0802H11.4282C13.2721 2.0802 14.7669 3.57497 14.7669 5.41887C14.7669 7.26274 13.2721 8.75753 11.4282 8.75753C13.2721 8.75753 14.7669 10.2523 14.7669 12.0962C14.7669 13.0118 14.3983 13.8413 13.8015 14.4444L13.789 14.457L13.7779 14.468C13.1746 15.0657 12.3446 15.4349 11.4282 15.4349C10.5181 15.4349 9.69309 15.0707 9.09083 14.4802C9.08302 14.4725 9.0752 14.4647 9.06742 14.457C9.06011 14.4497 9.05283 14.4423 9.04559 14.435C8.45428 13.8326 8.08956 13.007 8.08956 12.0962C8.08956 13.9401 6.59477 15.4349 4.7509 15.4349C2.907 15.4349 1.41223 13.9401 1.41223 12.0962V8.75753H4.7509C2.907 8.75753 1.41223 7.26274 1.41223 5.41887C1.41223 3.57497 2.907 2.0802 4.7509 2.0802ZM7.42183 5.41887C7.42183 6.89399 6.22602 8.0898 4.7509 8.0898V2.74793C6.22602 2.74793 7.42183 3.94375 7.42183 5.41887ZM14.0992 12.0962C14.0992 10.6211 12.9033 9.42526 11.4282 9.42526C9.9531 9.42526 8.7573 10.6211 8.7573 12.0962H14.0992ZM2.07996 9.42526V12.0962C2.07996 13.5713 3.27578 14.7671 4.7509 14.7671C6.22602 14.7671 7.42183 13.5713 7.42183 12.0962V9.42526H2.07996ZM8.7573 8.0898V2.74793H11.4282C12.9033 2.74793 14.0992 3.94375 14.0992 5.41887C14.0992 6.89399 12.9033 8.0898 11.4282 8.0898H8.7573Z" fill="#263238"/>
</g>
<defs>
<clipPath id="clip0_212_1121">
<rect width="13.3547" height="13.3547" fill="white" transform="translate(1.41223 2.0802)"/>
</clipPath>
</defs>
</svg>
