<svg width="20" height="17" viewBox="0 0 20 17" fill="none" xmlns="http://www.w3.org/2000/svg">
<g clip-path="url(#clip0_212_1155)">
<path d="M19.0251 7.26073C19.027 7.2468 19.027 7.23273 19.0251 7.21881C19.0269 7.20747 19.0269 7.1959 19.0251 7.18453L18.889 6.20541C18.8694 6.08828 18.8169 5.97879 18.7375 5.8892L18.7141 5.86253L18.6714 5.82063L16.3165 3.83192L16.3825 3.8967C16.3285 3.8333 16.2606 3.78259 16.184 3.74831C16.1073 3.71402 16.0238 3.69703 15.9395 3.69859H15.2245C15.1082 3.69633 14.9946 3.73257 14.9019 3.80145C14.8046 3.73298 14.6875 3.69693 14.5677 3.69859H13.8527C13.7589 3.69709 13.6664 3.71991 13.5845 3.76473C13.5026 3.80956 13.4343 3.8748 13.3864 3.95384C13.3125 4.06674 13.2848 4.20276 13.3086 4.33482L13.398 4.952C13.3388 4.91909 13.2718 4.90202 13.2037 4.90248H9.74122C9.61699 4.90324 9.49562 4.93894 9.39146 5.00534C9.29075 5.06714 9.2099 5.15564 9.15831 5.26059L8.89016 5.03581C8.78463 4.94008 8.64533 4.8882 8.50156 4.89105H3.06884C2.94417 4.89327 2.82227 4.92742 2.71522 4.9901C2.56876 5.07414 2.46143 5.21078 2.41598 5.37107L0.690567 11.0286C0.658328 11.1218 0.655156 11.2224 0.681459 11.3174C0.707761 11.4123 0.762345 11.4975 0.838239 11.562C0.858014 11.5784 0.878779 11.5937 0.900417 11.6077C0.900417 11.6077 0.865437 11.5848 0.846007 11.5658L3.20097 13.5583C3.30059 13.6482 3.43084 13.6985 3.56624 13.6992H9.04173C9.16678 13.6961 9.28876 13.6606 9.39537 13.5964C9.45566 13.5641 9.5096 13.5215 9.55469 13.4706L9.57412 13.444L9.60521 13.4059L9.62852 13.364L9.88501 13.5811C9.9832 13.6675 10.1106 13.715 10.2425 13.7145H15.7296C15.8546 13.7104 15.9763 13.675 16.0833 13.6116C16.1422 13.5773 16.1958 13.535 16.2426 13.4859L16.262 13.4592L16.2931 13.4211C16.3096 13.397 16.324 13.3715 16.3359 13.3449C16.3486 13.3218 16.359 13.2976 16.367 13.2726L17.9408 8.1065V8.06078C17.9428 8.04305 17.9428 8.02517 17.9408 8.00744V7.97316C17.9427 7.96179 17.9427 7.95023 17.9408 7.93886C17.9426 7.91477 17.9426 7.89058 17.9408 7.86647H18.446C18.49 7.87042 18.5342 7.87042 18.5781 7.86647H18.6131C18.6416 7.85815 18.6689 7.84664 18.6947 7.83219H18.7336L18.8035 7.77885L18.8346 7.75599L18.889 7.68741V7.66457L18.9279 7.59979C18.9257 7.5872 18.9257 7.5743 18.9279 7.56171C18.9258 7.55552 18.9258 7.54884 18.9279 7.54265C18.9361 7.52031 18.9426 7.49738 18.9473 7.47407C18.9455 7.46655 18.9455 7.45872 18.9473 7.4512C18.9454 7.43986 18.9454 7.42827 18.9473 7.41692C18.9473 7.41692 19.0251 7.26834 19.0251 7.26073Z" fill="black"/>
<path d="M8.66097 5.32536C8.68161 5.34365 8.69602 5.36769 8.70226 5.39426C8.70854 5.42083 8.70632 5.44864 8.69596 5.47394L6.97444 11.1276C6.95276 11.1894 6.90841 11.241 6.85008 11.2724C6.80262 11.3035 6.74769 11.3219 6.69074 11.3258H1.21917C1.17244 11.3236 1.12817 11.3046 1.09481 11.2724C1.07497 11.2544 1.06104 11.231 1.05481 11.2053C1.04858 11.1795 1.05033 11.1525 1.05984 11.1276L2.78525 5.47394C2.80513 5.41143 2.84809 5.35845 2.90572 5.32536C2.95396 5.29647 3.00864 5.27947 3.06505 5.27583H8.53662C8.58298 5.27627 8.62744 5.29397 8.66097 5.32536ZM5.80471 9.98852L6.83453 6.61306H3.95108L2.92514 9.98852H5.80471ZM13.8839 5.3825C13.9025 5.40377 13.9259 5.42064 13.9521 5.43185C13.9783 5.44306 14.0068 5.44833 14.0354 5.44727H14.7466C14.7736 5.44753 14.8003 5.44102 14.8241 5.42835C14.8479 5.41569 14.868 5.39728 14.8826 5.37488C14.8952 5.35738 14.9041 5.33757 14.9088 5.31663C14.9135 5.29569 14.9138 5.27404 14.9098 5.25297L14.7699 4.24719C14.7566 4.20064 14.7326 4.15766 14.6999 4.12147C14.6812 4.1002 14.6579 4.08333 14.6317 4.07212C14.6055 4.0609 14.577 4.05564 14.5484 4.0567H13.8372C13.8101 4.05644 13.7834 4.06295 13.7596 4.07562C13.7359 4.08828 13.7157 4.10668 13.7012 4.12909C13.674 4.18242 13.6624 4.21671 13.674 4.24719L13.8178 5.25297C13.8252 5.30194 13.8483 5.34732 13.8839 5.3825ZM16.1417 4.23957C16.1283 4.19302 16.1044 4.15003 16.0717 4.11385C16.0538 4.09266 16.0312 4.07579 16.0056 4.06456C15.98 4.05333 15.9521 4.04803 15.924 4.04908H15.209C15.1824 4.04834 15.156 4.05467 15.1328 4.06741C15.1095 4.08016 15.0902 4.09884 15.0769 4.12147C15.051 4.15527 15.0398 4.19772 15.0458 4.23957L15.1896 5.24535C15.1986 5.29381 15.2215 5.33874 15.2556 5.37488C15.2746 5.39573 15.298 5.41232 15.3242 5.4235C15.3504 5.43467 15.3786 5.44018 15.4072 5.43964H16.1222C16.1488 5.43999 16.175 5.43349 16.1982 5.42078C16.2214 5.40808 16.2407 5.38962 16.2544 5.36726C16.2679 5.35022 16.2773 5.33042 16.282 5.30932C16.2868 5.28823 16.2866 5.26637 16.2816 5.24535L16.1417 4.23957ZM13.2582 5.76348L13.1882 5.26821H9.74131C9.68719 5.27113 9.63483 5.28824 9.58974 5.31773C9.56113 5.33304 9.53621 5.35425 9.51675 5.3799C9.49732 5.40555 9.48377 5.43503 9.47707 5.46632L9.18949 6.41113C9.17801 6.43475 9.17408 6.46124 9.17824 6.48708C9.18242 6.51292 9.19446 6.53691 9.2128 6.55591C9.24557 6.58611 9.28834 6.60372 9.33328 6.60544H13.5225L12.4926 9.98091H8.31512C8.26125 9.98211 8.20879 9.99794 8.16358 10.0266C8.10861 10.0608 8.06847 10.1137 8.05087 10.1752L7.75942 11.12C7.74991 11.1443 7.74741 11.1706 7.7522 11.1962C7.75702 11.2217 7.76891 11.2455 7.78661 11.2648C7.81836 11.297 7.86146 11.3161 7.90708 11.3181H13.3942C13.451 11.3133 13.5057 11.295 13.5535 11.2648C13.6109 11.2332 13.654 11.1815 13.674 11.12L15.2517 5.95397H13.4758C13.4476 5.95451 13.4197 5.94938 13.3936 5.9389C13.3675 5.92841 13.3439 5.91279 13.3243 5.89301C13.2921 5.85846 13.2694 5.81653 13.2582 5.7711V5.76348Z" fill="white"/>
</g>
<defs>
<clipPath id="clip0_212_1155">
<rect width="18.3627" height="10.016" fill="white" transform="translate(0.663818 3.69849)"/>
</clipPath>
</defs>
</svg>
