<svg width="17" height="17" viewBox="0 0 17 17" fill="none" xmlns="http://www.w3.org/2000/svg">
<g clip-path="url(#clip0_212_1124)">
<path fill-rule="evenodd" clip-rule="evenodd" d="M5.17755 5.40608L1.84363 8.70648C2.51047 9.36663 3.27224 9.92299 4.10278 10.3583C4.33235 10.9611 4.69219 11.5264 5.18229 12.0116C7.02621 13.8369 10.0157 13.8369 11.8596 12.0116C12.3497 11.5264 12.7096 10.9611 12.9391 10.3582C13.7697 9.92299 14.5315 9.36663 15.1983 8.70648L11.8671 5.40877C11.8646 5.4063 11.8621 5.40383 11.8596 5.40137C10.0157 3.57601 7.02621 3.57601 5.18229 5.40137C5.18071 5.40294 5.17913 5.40451 5.17755 5.40608ZM11.5406 10.9537C10.5691 11.2783 9.54917 11.4445 8.52096 11.4445C7.49275 11.4445 6.47289 11.2783 5.50134 10.9537C5.6066 11.092 5.72282 11.2246 5.85003 11.3506C7.32515 12.8109 9.71677 12.8109 11.1919 11.3506C11.3191 11.2246 11.4353 11.092 11.5406 10.9537ZM5.9185 5.99628C6.169 6.16012 6.43536 6.30031 6.71407 6.41461C7.28692 6.6495 7.9009 6.7704 8.52096 6.7704C9.14102 6.7704 9.755 6.6495 10.3278 6.41461C10.6066 6.30031 10.8729 6.16011 11.1234 5.99628C9.66672 4.62414 7.3752 4.62414 5.9185 5.99628Z" fill="#3B4158"/>
</g>
<defs>
<clipPath id="clip0_212_1124">
<rect width="13.3547" height="9.34826" fill="white" transform="translate(1.84363 4.03235)"/>
</clipPath>
</defs>
</svg>
