<svg width="20" height="17" viewBox="0 0 20 17" fill="none" xmlns="http://www.w3.org/2000/svg">
<g clip-path="url(#clip0_212_1127)">
<path d="M19.2993 7.26073C19.3013 7.2468 19.3013 7.23273 19.2993 7.21881C19.3012 7.20747 19.3012 7.1959 19.2993 7.18453L19.1633 6.20541C19.1437 6.08828 19.0912 5.97879 19.0118 5.8892L18.9884 5.86253L18.9457 5.82063L16.5907 3.83192L16.6568 3.8967C16.6028 3.8333 16.5349 3.78259 16.4583 3.74831C16.3816 3.71402 16.298 3.69703 16.2138 3.69859H15.4988C15.3825 3.69633 15.2689 3.73257 15.1762 3.80145C15.0789 3.73298 14.9618 3.69693 14.842 3.69859H14.127C14.0332 3.69709 13.9407 3.71991 13.8588 3.76473C13.7769 3.80956 13.7086 3.8748 13.6607 3.95384C13.5868 4.06674 13.559 4.20276 13.5829 4.33482L13.6723 4.952C13.6131 4.91909 13.5461 4.90202 13.478 4.90248H10.0155C9.89128 4.90324 9.76991 4.93894 9.66576 5.00534C9.56504 5.06714 9.48419 5.15564 9.4326 5.26059L9.16445 5.03581C9.05892 4.94008 8.91962 4.8882 8.77586 4.89105H3.34313C3.21846 4.89327 3.09656 4.92742 2.98951 4.9901C2.84305 5.07414 2.73572 5.21078 2.69027 5.37107L0.964859 11.0286C0.93262 11.1218 0.929448 11.2224 0.955751 11.3174C0.982053 11.4123 1.03664 11.4975 1.11253 11.562C1.13231 11.5784 1.15307 11.5937 1.17471 11.6077C1.17471 11.6077 1.13973 11.5848 1.1203 11.5658L3.47527 13.5583C3.57489 13.6482 3.70513 13.6985 3.84053 13.6992H9.31602C9.44107 13.6961 9.56305 13.6606 9.66966 13.5964C9.72995 13.5641 9.78389 13.5215 9.82898 13.4706L9.84841 13.444L9.8795 13.4059L9.90281 13.364L10.1593 13.5811C10.2575 13.6675 10.3849 13.715 10.5168 13.7145H16.0039C16.1289 13.7104 16.2506 13.675 16.3576 13.6116C16.4165 13.5773 16.4701 13.535 16.5169 13.4859L16.5363 13.4592L16.5674 13.4211C16.5839 13.397 16.5983 13.3715 16.6102 13.3449C16.6229 13.3218 16.6333 13.2976 16.6412 13.2726L18.2151 8.1065V8.06078C18.217 8.04305 18.217 8.02517 18.2151 8.00744V7.97316C18.217 7.96179 18.217 7.95023 18.2151 7.93886C18.2169 7.91477 18.2169 7.89058 18.2151 7.86647H18.7203C18.7642 7.87042 18.8085 7.87042 18.8524 7.86647H18.8874C18.9158 7.85815 18.9432 7.84664 18.969 7.83219H19.0079L19.0778 7.77885L19.1089 7.75599L19.1633 7.68741V7.66457L19.2022 7.59979C19.2 7.5872 19.2 7.5743 19.2022 7.56171C19.2001 7.55552 19.2001 7.54884 19.2022 7.54265C19.2104 7.52031 19.2169 7.49738 19.2216 7.47407C19.2198 7.46655 19.2198 7.45872 19.2216 7.4512C19.2197 7.43986 19.2197 7.42827 19.2216 7.41692C19.2216 7.41692 19.2993 7.26834 19.2993 7.26073Z" fill="black"/>
<path d="M8.93514 5.32536C8.95578 5.34365 8.97019 5.36769 8.97643 5.39426C8.98271 5.42083 8.98049 5.44864 8.97013 5.47394L7.24861 11.1276C7.22693 11.1894 7.18258 11.241 7.12425 11.2724C7.07679 11.3035 7.02186 11.3219 6.96491 11.3258H1.49334C1.44661 11.3236 1.40234 11.3046 1.36898 11.2724C1.34914 11.2544 1.33521 11.231 1.32898 11.2053C1.32275 11.1795 1.3245 11.1525 1.33401 11.1276L3.05942 5.47394C3.0793 5.41143 3.12226 5.35845 3.17989 5.32536C3.22813 5.29647 3.28281 5.27947 3.33922 5.27583H8.81079C8.85715 5.27627 8.90161 5.29397 8.93514 5.32536ZM6.07888 9.98852L7.1087 6.61306H4.22525L3.19931 9.98852H6.07888ZM14.158 5.3825C14.1767 5.40377 14.2 5.42064 14.2263 5.43185C14.2525 5.44306 14.281 5.44833 14.3096 5.44727H15.0207C15.0478 5.44753 15.0745 5.44102 15.0983 5.42835C15.1221 5.41569 15.1422 5.39728 15.1567 5.37488C15.1694 5.35738 15.1783 5.33757 15.183 5.31663C15.1876 5.29569 15.188 5.27404 15.1839 5.25297L15.044 4.24719C15.0307 4.20064 15.0068 4.15766 14.9741 4.12147C14.9554 4.1002 14.9321 4.08333 14.9059 4.07212C14.8796 4.0609 14.8511 4.05564 14.8225 4.0567H14.1114C14.0843 4.05644 14.0576 4.06295 14.0338 4.07562C14.01 4.08828 13.9899 4.10668 13.9754 4.12909C13.9482 4.18242 13.9365 4.21671 13.9482 4.24719L14.092 5.25297C14.0993 5.30194 14.1225 5.34732 14.158 5.3825ZM16.4158 4.23957C16.4025 4.19302 16.3786 4.15003 16.3459 4.11385C16.328 4.09266 16.3054 4.07579 16.2797 4.06456C16.2541 4.05333 16.2262 4.04803 16.1982 4.04908H15.4832C15.4565 4.04834 15.4302 4.05467 15.4069 4.06741C15.3837 4.08016 15.3644 4.09884 15.3511 4.12147C15.3252 4.15527 15.314 4.19772 15.32 4.23957L15.4637 5.24535C15.4728 5.29381 15.4957 5.33874 15.5298 5.37488C15.5488 5.39573 15.5722 5.41232 15.5984 5.4235C15.6245 5.43467 15.6528 5.44018 15.6814 5.43964H16.3964C16.423 5.43999 16.4491 5.43349 16.4723 5.42078C16.4955 5.40808 16.5149 5.38962 16.5285 5.36726C16.5421 5.35022 16.5515 5.33042 16.5562 5.30932C16.5609 5.28823 16.5607 5.26637 16.5557 5.24535L16.4158 4.23957ZM13.5324 5.76348L13.4624 5.26821H10.0155C9.96136 5.27113 9.909 5.28824 9.86391 5.31773C9.8353 5.33304 9.81038 5.35425 9.79092 5.3799C9.77149 5.40555 9.75794 5.43503 9.75124 5.46632L9.46366 6.41113C9.45218 6.43475 9.44825 6.46124 9.45241 6.48708C9.45659 6.51292 9.46863 6.53691 9.48697 6.55591C9.51974 6.58611 9.56251 6.60372 9.60745 6.60544H13.7966L12.7668 9.98091H8.58929C8.53542 9.98211 8.48296 9.99794 8.43775 10.0266C8.38278 10.0608 8.34264 10.1137 8.32504 10.1752L8.03359 11.12C8.02408 11.1443 8.02158 11.1706 8.02637 11.1962C8.03119 11.2217 8.04308 11.2455 8.06078 11.2648C8.09253 11.297 8.13563 11.3161 8.18125 11.3181H13.6684C13.7251 11.3133 13.7798 11.295 13.8277 11.2648C13.8851 11.2332 13.9281 11.1815 13.9482 11.12L15.5259 5.95397H13.75C13.7218 5.95451 13.6938 5.94938 13.6678 5.9389C13.6417 5.92841 13.6181 5.91279 13.5984 5.89301C13.5663 5.85846 13.5436 5.81653 13.5324 5.7711V5.76348Z" fill="white"/>
</g>
<defs>
<clipPath id="clip0_212_1127">
<rect width="18.3627" height="10.016" fill="white" transform="translate(0.93811 3.69849)"/>
</clipPath>
</defs>
</svg>
