<svg width="17" height="17" viewBox="0 0 17 17" fill="none" xmlns="http://www.w3.org/2000/svg">
<g clip-path="url(#clip0_212_1131)">
<path d="M15.3939 5.22245C15.3939 5.23374 15.3939 5.24785 15.3909 5.25632C15.3762 5.36639 15.3762 5.47646 15.385 5.58935C15.3909 5.61758 15.3968 5.6458 15.4203 5.66838C15.4586 5.71071 15.5174 5.70225 15.5409 5.65144C15.5527 5.62604 15.5527 5.60064 15.5468 5.57524C15.5174 5.46799 15.5115 5.3551 15.5086 5.24503C15.5086 5.23938 15.5086 5.23092 15.5086 5.22245C15.5409 5.21963 15.5703 5.2168 15.5968 5.2168C15.6174 5.21398 15.635 5.21116 15.6497 5.20269C15.6938 5.18012 15.6938 5.13214 15.6468 5.10956C15.6291 5.10109 15.6056 5.09827 15.585 5.09827C15.5115 5.10109 15.438 5.10109 15.3645 5.10109C15.338 5.10109 15.3115 5.10391 15.2851 5.10673C15.2704 5.10956 15.2527 5.10956 15.241 5.11802C15.2204 5.12649 15.2086 5.1406 15.2086 5.16036C15.2116 5.18012 15.2204 5.1914 15.241 5.19987C15.2527 5.20834 15.2674 5.21116 15.2821 5.21116C15.3174 5.21398 15.3556 5.21963 15.3939 5.22245ZM16.2025 5.35228C16.2025 5.3551 16.2055 5.35792 16.2055 5.35792C16.2172 5.43412 16.229 5.50751 16.2378 5.58089C16.2408 5.60629 16.2437 5.62886 16.2614 5.64862C16.2996 5.6966 16.3584 5.69096 16.3848 5.64016C16.3966 5.61475 16.3996 5.58935 16.3937 5.56113C16.376 5.47646 16.3672 5.39179 16.3496 5.30994C16.3378 5.25914 16.3231 5.21116 16.3084 5.166C16.2996 5.13778 16.279 5.11802 16.2437 5.1152C16.2084 5.10956 16.182 5.12649 16.1672 5.15189C16.1496 5.17447 16.1349 5.19705 16.1231 5.22245C16.1026 5.26761 16.0849 5.31277 16.0614 5.3551C16.0584 5.36639 16.0555 5.37486 16.0496 5.38332C16.0467 5.37768 16.0438 5.37486 16.0438 5.37486C16.0055 5.3043 15.9702 5.23374 15.932 5.166C15.9261 5.16036 15.9232 5.15471 15.9202 5.14907C15.9026 5.12367 15.882 5.10956 15.8497 5.10956C15.8203 5.11238 15.7967 5.12931 15.782 5.15471C15.7761 5.166 15.7761 5.17447 15.7732 5.18576C15.7614 5.27607 15.7467 5.36639 15.735 5.4567C15.7291 5.50751 15.7262 5.55831 15.7262 5.60911C15.7232 5.6204 15.7262 5.63451 15.732 5.6458C15.7379 5.66838 15.7556 5.68249 15.7791 5.68531C15.8085 5.68813 15.8291 5.67967 15.8379 5.65709C15.8467 5.64016 15.8497 5.62604 15.8526 5.61193C15.8644 5.56113 15.8732 5.51315 15.882 5.46517C15.8879 5.43695 15.8908 5.41437 15.8997 5.38332C15.9055 5.39461 15.9114 5.40308 15.9173 5.41155C15.9438 5.44541 15.9702 5.47928 16.0026 5.50751C16.0349 5.53008 16.0614 5.52726 16.0878 5.50186C16.0937 5.49622 16.0967 5.49339 16.1026 5.48775C16.129 5.44824 16.1614 5.40872 16.1878 5.36921C16.1937 5.36357 16.1967 5.35792 16.2025 5.35228Z" fill="#3A3B7B"/>
<path d="M9.42701 5.27786C9.40656 5.3315 9.40266 5.37014 9.4121 5.40226C9.42253 5.44593 9.44958 5.46023 9.4863 5.44912C9.8317 5.36715 10.5891 5.59983 10.8695 5.66468C10.9356 5.6783 10.9894 5.59636 10.9443 5.5229C10.8784 5.45176 10.1214 5.14717 9.83253 5.13057C9.7193 5.12443 9.51688 5.09656 9.42701 5.27786Z" fill="#3A3B7B"/>
<path d="M12.387 4.29189C12.4238 4.31228 12.4444 4.33173 12.4545 4.35347C12.4697 4.38197 12.4617 4.4017 12.4363 4.41176C12.208 4.51871 11.9041 4.97914 11.7815 5.13794C11.7518 5.17447 11.6832 5.15324 11.6729 5.09317C11.675 5.02525 11.9443 4.52558 12.0946 4.38948C12.1537 4.33635 12.2512 4.23209 12.387 4.29189Z" fill="#3A3B7B"/>
<path d="M10.5688 4.06531C10.6131 4.03332 10.659 4.02211 10.6825 4.0429C11.027 4.32565 11.2097 4.77341 11.3228 5.18333C11.327 5.19288 11.3273 5.20658 11.3239 5.22088C11.3225 5.2331 11.3132 5.24601 11.2984 5.25599C11.2826 5.26702 11.269 5.27038 11.2626 5.26088C11.1117 5.06379 10.2494 4.29694 10.5688 4.06531Z" fill="#3A3B7B"/>
<path d="M3.27414 8.9675C3.3567 8.90851 3.44646 8.85939 3.54144 8.82128C3.64081 8.79401 3.74673 8.79852 3.84319 8.83417C3.93963 8.86982 4.02138 8.93463 4.07603 9.01882C4.12492 9.10279 4.14404 9.19974 4.13055 9.29506C4.11706 9.39037 4.07166 9.47889 4.00118 9.54731C3.94655 9.60276 3.88453 9.65106 3.81676 9.69098C3.51472 9.87826 3.20998 10.0553 2.90527 10.2425C2.84291 10.2894 2.77677 10.3315 2.70746 10.3683C2.60204 10.4187 2.48157 10.4322 2.36686 10.4065C2.25216 10.3807 2.15045 10.3173 2.07931 10.2272C2.02613 10.1634 1.98125 10.0936 1.94566 10.0194C1.65698 9.437 1.3576 8.85719 1.07961 8.26456C0.951305 8.00802 0.847059 7.71298 0.745485 7.42822C0.70154 7.34548 0.692958 7.24956 0.721568 7.16084C0.750177 7.07211 0.813721 6.99761 0.898682 6.95316C0.983643 6.90871 1.08332 6.89784 1.17651 6.92283C1.2697 6.94783 1.34905 7.00674 1.39769 7.08701C1.5472 7.2777 1.67955 7.48026 1.7933 7.69247C2.08198 8.20556 2.3573 8.71865 2.63529 9.21635C2.65148 9.24386 2.66933 9.2704 2.68875 9.29588C2.89799 9.21145 3.09478 9.10105 3.27414 8.9675Z" fill="#3A3B7B"/>
<path d="M6.25891 8.78851C5.5987 9.52992 4.49207 9.34264 3.93609 8.38829C3.54048 7.711 3.47099 6.59245 4.3317 5.88695C4.51549 5.73924 4.73527 5.63863 4.97053 5.59448C5.25899 5.55479 5.55314 5.60363 5.81094 5.73403C6.06873 5.86442 6.27698 6.0697 6.40594 6.32051C6.87638 7.14147 6.80956 8.18817 6.25891 8.78851ZM5.99162 7.05937C5.92147 6.85763 5.78076 6.6854 5.59334 6.57192C5.48728 6.49937 5.35841 6.4641 5.22844 6.47204C5.09844 6.47998 4.97529 6.53066 4.87966 6.61553C4.49743 6.94136 4.41722 7.71357 4.69521 8.17279C4.73065 8.24768 4.78268 8.31422 4.84771 8.36778C4.91274 8.42134 4.98918 8.46062 5.07168 8.48284C5.15417 8.50509 5.24072 8.50975 5.3253 8.49653C5.40988 8.48328 5.4904 8.45248 5.56128 8.40624C5.76848 8.25206 5.92049 8.03975 5.99617 7.79884C6.07187 7.55791 6.06747 7.30035 5.98361 7.06195L5.99162 7.05937Z" fill="#3A3B7B"/>
<path d="M8.95334 7.38257C8.88576 7.39652 8.81593 7.39735 8.74798 7.38501C8.68006 7.37266 8.61536 7.34742 8.55775 7.31074C8.50734 7.28306 8.46394 7.24501 8.43067 7.19931C8.39743 7.15361 8.37515 7.10141 8.36544 7.04644C8.35571 6.9915 8.35883 6.93516 8.3745 6.88149C8.39019 6.82782 8.4181 6.77816 8.45618 6.73606C8.52254 6.65148 8.61673 6.59092 8.72348 6.56418C9.00219 6.48655 9.2891 6.43922 9.57884 6.42309C9.6425 6.41598 9.70699 6.42115 9.76853 6.43829C9.83008 6.45546 9.88743 6.48422 9.93724 6.52295C9.98702 6.56165 10.0283 6.60954 10.0585 6.66376C10.0888 6.71798 10.1074 6.77745 10.1134 6.83869C10.197 7.1395 10.2061 7.4549 10.1402 7.75971C9.8996 8.74484 9.07096 9.08347 8.14076 8.76792C7.87965 8.68356 7.65071 8.52636 7.48321 8.31641C7.2598 8.06357 7.1014 7.76393 7.02077 7.44158C6.95545 7.15453 6.9626 6.85667 7.04166 6.57283C7.12071 6.28899 7.26935 6.02741 7.47518 5.80993C7.67052 5.57357 7.92405 5.38754 8.21294 5.26862C8.39548 5.17205 8.60909 5.14459 8.81169 5.19165C8.85765 5.20386 8.89936 5.22765 8.93252 5.26055C8.96567 5.29345 8.98905 5.33426 9.00024 5.37876C9.01142 5.42325 9.00999 5.46981 8.99611 5.5136C8.98222 5.55739 8.95639 5.59681 8.92129 5.62779C8.85453 5.68578 8.78201 5.73734 8.70476 5.78171C8.46712 5.92696 8.26033 6.11412 8.09532 6.33329C7.98716 6.47511 7.91267 6.63797 7.87711 6.81037C7.84154 6.98278 7.84578 7.16058 7.88951 7.33127C7.95013 7.564 8.08465 7.77289 8.27441 7.92901C8.86246 8.44212 9.62694 7.94697 9.49329 7.2466C9.29818 7.29279 9.12709 7.34153 8.95334 7.38257Z" fill="#3A3B7B"/>
<path d="M12.5458 8.8295C11.6771 9.3426 10.6881 8.8295 10.4716 7.75201C10.3139 6.98237 10.6132 5.90486 11.6611 5.49438C11.884 5.40893 12.1258 5.37892 12.364 5.40716C12.6503 5.45745 12.9129 5.5927 13.1148 5.79384C13.3166 5.99497 13.4477 6.25185 13.4894 6.52827C13.6658 7.44414 13.2648 8.42159 12.5458 8.8295ZM12.8479 7.10293C12.8476 6.88981 12.769 6.68358 12.626 6.52057C12.5495 6.41975 12.439 6.3475 12.3132 6.31615C12.1875 6.28481 12.0543 6.2963 11.9364 6.34869C11.4659 6.54365 11.1345 7.25173 11.2547 7.77254C11.2639 7.85426 11.2916 7.93308 11.3358 8.00348C11.3801 8.07387 11.4398 8.13414 11.5108 8.18009C11.5818 8.22601 11.6625 8.25651 11.747 8.26943C11.8316 8.28232 11.9181 8.27735 12.0005 8.25484C12.2492 8.17146 12.4645 8.01565 12.6164 7.80913C12.7683 7.60262 12.8492 7.35572 12.8479 7.10293Z" fill="#3A3B7B"/>
<path d="M14.3679 9.04508C14.3548 9.13897 14.3033 9.22402 14.2249 9.28152C14.1464 9.33899 14.0474 9.36423 13.9495 9.35165C13.8517 9.33906 13.7631 9.28968 13.7032 9.21438C13.6433 9.1391 13.617 9.04404 13.6301 8.95015C13.6432 8.85625 13.6947 8.7712 13.7731 8.71371C13.8516 8.65621 13.9506 8.63099 14.0485 8.64358C14.1463 8.65616 14.2349 8.70552 14.2948 8.78082C14.3547 8.85612 14.381 8.95118 14.3679 9.04508ZM14.1353 5.58424C14.1862 5.50972 14.2607 5.45297 14.3479 5.42245C14.4351 5.39194 14.5303 5.38929 14.6191 5.41492C14.7095 5.43661 14.7893 5.48745 14.8453 5.5589C14.9013 5.63036 14.9299 5.7181 14.9265 5.80743C14.9147 5.95072 14.8924 6.09303 14.8597 6.2333C14.7715 6.70792 14.686 7.18252 14.5924 7.65202C14.5496 7.8393 14.4935 8.01888 14.432 8.20872C14.4106 8.26806 14.3749 8.32169 14.3278 8.36521C14.2985 8.39796 14.2611 8.42307 14.219 8.43823C14.1769 8.45341 14.1315 8.45814 14.087 8.452C14.0425 8.44586 14.0003 8.42905 13.9644 8.40313C13.9284 8.37719 13.8999 8.34297 13.8814 8.30364C13.8496 8.2331 13.8324 8.15729 13.8306 8.08045C13.8306 7.76233 13.8306 7.44165 13.852 7.12095C13.8883 6.66329 13.9598 6.20882 14.0658 5.76125C14.0783 5.70129 14.1018 5.64395 14.1353 5.59193V5.58424Z" fill="#3A3B7B"/>
<path fill-rule="evenodd" clip-rule="evenodd" d="M2.14479 11.1066C2.11323 11.1742 2.10457 11.2496 2.12 11.3222C2.13026 11.4178 2.15279 11.5119 2.18709 11.6022C2.22991 11.7129 2.27783 11.8223 2.33691 11.9571C2.35049 11.9881 2.36469 12.0205 2.37955 12.0546C2.45923 12.2373 2.55919 12.4708 2.69254 12.8087C2.73028 12.9046 2.7638 13.0014 2.79755 13.0989C2.81118 13.1382 2.82487 13.1777 2.83887 13.2173C2.88908 13.3581 2.97546 13.4845 3.08997 13.5847C3.13859 13.6398 3.20308 13.6799 3.2754 13.7C3.34913 13.7205 3.42754 13.7192 3.50049 13.6963C3.57343 13.6734 3.6375 13.6299 3.68437 13.5716C3.73032 13.5144 3.75765 13.4455 3.76296 13.3735C3.79278 13.2332 3.7826 13.0878 3.73346 12.9526C3.65548 12.7281 3.56664 12.5032 3.46419 12.2833L3.46372 12.2823C3.29519 11.9383 3.12388 11.5966 2.94447 11.2547L2.94313 11.2523C2.8906 11.1633 2.82235 11.0837 2.74142 11.0171C2.68889 10.9577 2.61642 10.9176 2.53639 10.9037C2.45466 10.8896 2.37036 10.9039 2.29855 10.9439C2.23062 10.9811 2.17677 11.0381 2.14479 11.1066Z" fill="#3A3B7B"/>
<path fill-rule="evenodd" clip-rule="evenodd" d="M4.7188 10.2594C4.45455 10.1938 4.17858 10.1842 3.91011 10.2314C3.70218 10.2511 3.49767 10.2971 3.35566 10.3883C3.28343 10.4347 3.22504 10.4943 3.19255 10.57C3.15989 10.6462 3.15572 10.7333 3.18249 10.8303C3.23136 11.0081 3.29482 11.1809 3.35806 11.3532L3.3683 11.3811L3.36855 11.3817C3.55896 11.8822 3.75118 12.3809 3.94515 12.878C3.96777 12.9563 3.99976 13.0319 4.04047 13.1032L4.04123 13.1045C4.09501 13.1931 4.16398 13.2722 4.24524 13.3388C4.28589 13.3753 4.33614 13.4006 4.39064 13.412C4.44567 13.4234 4.5029 13.4201 4.5561 13.4024C4.60931 13.3847 4.65644 13.3533 4.69235 13.3117C4.72768 13.2708 4.75081 13.2214 4.75931 13.1689C4.79437 13.0263 4.78313 12.8768 4.72709 12.7404C4.70961 12.6945 4.69589 12.6476 4.68143 12.5983C4.67661 12.5818 4.67172 12.5651 4.66657 12.548C5.11058 12.3815 5.58301 12.1575 5.74914 11.6364C5.81419 11.4563 5.81962 11.2613 5.76465 11.0782C5.70964 10.8948 5.59677 10.7323 5.4416 10.613C5.23042 10.4459 4.98372 10.3253 4.7188 10.2594ZM3.98633 10.8986C3.99507 10.8961 4.00388 10.8939 4.01272 10.8918C4.30178 10.8482 4.59752 10.9063 4.8455 11.0554C4.95478 11.1284 4.99955 11.2094 5.00723 11.2874C5.01517 11.3677 4.98475 11.4547 4.92364 11.5383C4.80817 11.6963 4.59746 11.8228 4.40712 11.8464C4.26836 11.5397 4.12744 11.2205 3.98633 10.8986Z" fill="#3A3B7B"/>
<path d="M6.48057 9.698C6.79526 9.55851 7.18506 9.53442 7.49009 9.63249C7.56691 9.65397 7.63355 9.70042 7.67863 9.76391C7.72342 9.82699 7.74409 9.90302 7.73719 9.97903C7.73674 10.0284 7.72412 10.0769 7.70038 10.1207C7.67621 10.1653 7.64122 10.2036 7.59836 10.2325C7.5555 10.2613 7.50602 10.2799 7.45413 10.2865C7.40221 10.2931 7.34942 10.2877 7.30017 10.2706L7.29643 10.2693L7.29291 10.2675C7.26771 10.2549 7.24095 10.2453 7.21326 10.2391L7.21151 10.2387C6.99694 10.184 6.79454 10.2747 6.72061 10.386C6.68535 10.4391 6.68098 10.4928 6.71034 10.5415C6.74179 10.5937 6.81893 10.6523 6.97502 10.6941C7.01794 10.7054 7.06195 10.7163 7.10658 10.7274C7.23001 10.7581 7.35828 10.7899 7.48231 10.8341L7.48278 10.8343C8.05499 11.0432 8.26806 11.476 8.19512 11.8831C8.12296 12.2856 7.77269 12.6519 7.24597 12.7383C7.0543 12.7791 6.85484 12.7712 6.66732 12.7153C6.47934 12.6593 6.30989 12.557 6.17581 12.4186L6.17232 12.415C6.12999 12.3629 6.10153 12.3017 6.0889 12.2367C6.07729 12.178 6.08341 12.1174 6.1065 12.062C6.12946 12.0069 6.16828 11.9592 6.21838 11.9245C6.27131 11.8851 6.33511 11.8615 6.40189 11.8565C6.46844 11.8516 6.53504 11.8655 6.59348 11.8964C6.65186 11.9235 6.70615 11.958 6.75488 11.9991L6.7558 11.9998C6.84202 12.0755 6.94632 12.0952 7.04635 12.077C7.14783 12.0584 7.24326 12.0008 7.30463 11.9243C7.36561 11.8484 7.39009 11.7581 7.36103 11.6705C7.3318 11.5822 7.24391 11.4833 7.05079 11.4006C7.0003 11.3801 6.94796 11.3635 6.89351 11.3473C6.87883 11.343 6.8639 11.3386 6.84879 11.3342C6.80853 11.3225 6.7671 11.3104 6.72648 11.2971C6.69851 11.288 6.67075 11.2793 6.64327 11.2707C6.56815 11.2472 6.49492 11.2243 6.42444 11.1936C6.27104 11.1435 6.13851 11.0473 6.04658 10.9191C5.95427 10.7905 5.90782 10.6366 5.91414 10.4806C5.91464 10.1003 6.1642 9.83826 6.48057 9.698Z" fill="#3A3B7B"/>
<path d="M10.4701 9.6574C10.409 9.6288 10.3416 9.61522 10.2737 9.61788C10.2059 9.62057 10.1398 9.6394 10.0814 9.67274C10.0235 9.70584 9.9749 9.75218 9.9401 9.80765C9.90821 9.85437 9.88613 9.90661 9.87512 9.96147C9.86411 10.0163 9.86438 10.0726 9.87588 10.1273C9.88725 10.1976 9.89984 10.2659 9.91229 10.3333C9.93289 10.4449 9.95293 10.5539 9.96615 10.6651L9.96665 10.6679C9.99675 10.8422 10.0125 11.0186 10.0139 11.1953L10.0141 11.1978C10.0243 11.3886 9.9566 11.5757 9.82535 11.7194L9.82327 11.7219C9.78056 11.7745 9.72347 11.8146 9.65835 11.8377C9.59325 11.8609 9.52273 11.8662 9.45465 11.8531C9.38657 11.84 9.32364 11.809 9.27289 11.7635C9.22214 11.718 9.18553 11.6597 9.16726 11.5954C9.12826 11.4599 9.10569 11.3206 9.09995 11.1801L9.16657 10.1621C9.16756 10.1488 9.16868 10.1352 9.16982 10.1214C9.17235 10.0905 9.17495 10.059 9.17603 10.0296C9.1776 9.98642 9.17625 9.94197 9.16576 9.8999C9.15502 9.8569 9.1346 9.81599 9.09838 9.78116C9.06251 9.74668 9.01409 9.72124 8.95316 9.70392C8.84298 9.67331 8.74982 9.67428 8.67219 9.7059C8.59452 9.73752 8.5413 9.79623 8.50364 9.86405C8.46627 9.9313 8.44226 10.0109 8.4241 10.0907C8.41063 10.1498 8.3998 10.2119 8.38952 10.2711C8.38595 10.2914 8.38248 10.3115 8.37896 10.3309L8.37887 10.3315C8.32381 10.6557 8.30743 10.985 8.33002 11.3128C8.33424 11.4899 8.37273 11.6648 8.44356 11.8285C8.52348 12.0396 8.66822 12.2226 8.8587 12.3532C9.04958 12.484 9.27735 12.5561 9.51188 12.56C9.7464 12.5638 9.9766 12.4991 10.172 12.3745C10.3671 12.2501 10.5182 12.0718 10.6055 11.8633C10.7276 11.5975 10.785 11.3086 10.7731 11.0184C10.766 10.8065 10.7539 10.593 10.742 10.3806C10.7361 10.2764 10.7303 10.1724 10.725 10.0691C10.7224 9.96549 10.6868 9.86513 10.623 9.78149C10.5835 9.72861 10.531 9.68596 10.4701 9.6574Z" fill="#3A3B7B"/>
<path d="M12.6298 11.2538C12.6236 11.2613 12.6171 11.2691 12.6102 11.2772C12.5606 11.0025 12.5146 10.7277 12.4685 10.4526C12.452 10.3539 12.4354 10.2548 12.4187 10.1559L12.4168 10.1449L12.4107 10.1354C12.3992 10.1174 12.3981 10.0999 12.3981 10.0624V10.058L12.3974 10.0537C12.3849 9.9763 12.3484 9.90424 12.2927 9.84698C12.2371 9.78988 12.1649 9.75014 12.0855 9.73288C12.0062 9.71411 11.9229 9.71825 11.846 9.74479C11.7693 9.77126 11.7025 9.81883 11.6539 9.88155C11.6134 9.92967 11.5803 9.98306 11.5554 10.0401C11.499 10.163 11.4422 10.2862 11.3851 10.4097L11.3842 10.4118C11.2418 10.7202 11.0985 11.0306 10.9593 11.3434L10.9589 11.3445C10.8734 11.5473 10.8029 11.7611 10.7326 11.9742C10.7186 12.0167 10.7046 12.0592 10.6904 12.1016C10.665 12.1689 10.654 12.2403 10.6578 12.3117C10.6531 12.3756 10.6691 12.4394 10.7035 12.4944C10.7385 12.5505 10.7911 12.5946 10.8536 12.6206C10.9199 12.6485 10.9941 12.6544 11.0643 12.6375C11.1344 12.6205 11.1966 12.5817 11.2412 12.5271C11.2981 12.4599 11.3471 12.3866 11.387 12.3089C11.5049 12.0774 11.6176 11.8432 11.7298 11.6099C11.7732 11.5197 11.8153 11.4389 11.8633 11.3509C11.8666 11.3617 11.8699 11.3723 11.8734 11.3829C11.9237 11.5954 12.0086 11.7989 12.1249 11.986C12.1469 12.0256 12.1776 12.0602 12.2148 12.0875C12.2524 12.1151 12.2959 12.1345 12.3422 12.1443C12.3884 12.1541 12.4363 12.1542 12.4826 12.1444C12.5288 12.1347 12.5724 12.1153 12.6101 12.0879L12.6847 12.0343L13.2635 11.5663L13.2293 11.7757C13.1823 12.0635 13.1357 12.3489 13.0861 12.6344C13.0537 12.7609 13.0538 12.893 13.0863 13.0195C13.1004 13.0907 13.1362 13.1562 13.1893 13.2078C13.2428 13.2597 13.3114 13.295 13.3861 13.3091C13.4608 13.3232 13.5382 13.3154 13.6082 13.2867C13.6772 13.2585 13.7359 13.2113 13.7769 13.1511C13.8723 13.0374 13.9317 12.8998 13.948 12.7547C13.9726 12.5497 14.0004 12.3419 14.0281 12.1341C14.0601 11.8947 14.0921 11.6553 14.1191 11.4206L14.1192 11.4198C14.1452 11.1628 14.1578 10.9048 14.1569 10.6466C14.1626 10.565 14.1415 10.4837 14.0964 10.4142C14.0511 10.3445 13.9841 10.2903 13.9049 10.2593C13.8224 10.2234 13.7302 10.2138 13.6417 10.2319C13.5537 10.25 13.4741 10.2945 13.4144 10.3589C13.3076 10.4537 13.2075 10.5551 13.1146 10.6625L13.1139 10.6632C13.0125 10.7846 12.9118 10.9083 12.8117 11.0311C12.7508 11.1059 12.6901 11.1804 12.6298 11.2538Z" fill="#3A3B7B"/>
</g>
<defs>
<clipPath id="clip0_212_1131">
<rect width="15.6917" height="9.68213" fill="white" transform="translate(0.704956 4.03235)"/>
</clipPath>
</defs>
</svg>
