<svg width="17" height="17" viewBox="0 0 17 17" fill="none" xmlns="http://www.w3.org/2000/svg">
<g clip-path="url(#clip0_212_1147)">
<path d="M14.9709 4.64791C14.9709 4.80349 15.0986 4.92961 15.2561 4.92961H15.5413C15.6988 4.92961 15.8265 4.80349 15.8265 4.64791C15.8265 4.49233 15.6988 4.36621 15.5413 4.36621H15.2561C15.0986 4.36621 14.9709 4.49233 14.9709 4.64791Z" fill="#212326"/>
<path d="M6.7009 13.3806H8.08625L7.68294 12.9822C7.57599 12.8766 7.43091 12.8172 7.27966 12.8172H6.7009C4.49591 12.8172 2.70842 11.0515 2.70842 8.87341C2.70842 6.69531 4.49591 4.92961 6.7009 4.92961H11.2637C13.4687 4.92961 15.2562 6.69531 15.2562 8.87341C15.2562 11.0515 13.4687 12.8172 11.2637 12.8172H9.55688C9.32997 12.8172 9.11237 12.7282 8.95191 12.5697L8.47943 12.103C8.21203 11.8388 7.84933 11.6904 7.47116 11.6904H6.7009C5.1259 11.6904 3.84913 10.4292 3.84913 8.87341C3.84913 7.31761 5.1259 6.05641 6.7009 6.05641H11.2637C12.8387 6.05641 14.1155 7.31761 14.1155 8.87341C14.1155 10.4292 12.8387 11.6904 11.2637 11.6904H10.1678C9.94087 11.6904 9.72326 11.6014 9.56281 11.4429L9.09031 10.9762C8.8229 10.712 8.46022 10.5636 8.08205 10.5636H6.7009C5.75592 10.5636 4.98984 9.80687 4.98984 8.87341C4.98984 7.93995 5.75592 7.18321 6.7009 7.18321H11.2637C12.2087 7.18321 12.9748 7.93995 12.9748 8.87341C12.9748 9.79549 12.2273 10.5451 11.2982 10.5633L11.2981 10.5636H10.8807C10.6538 10.5636 10.4362 10.4746 10.2758 10.3161L9.80325 9.84935C9.58385 9.6326 9.30029 9.4938 8.99665 9.45096L8.98233 9.43681H6.7009C6.38591 9.43681 6.13055 9.18456 6.13055 8.87341C6.13055 8.56225 6.38591 8.31001 6.7009 8.31001H11.2637C11.5787 8.31001 11.8341 8.56225 11.8341 8.87341C11.8341 9.18456 11.5787 9.43681 11.2637 9.43681H10.123L10.5263 9.8352C10.6333 9.94085 10.7784 10.0002 10.9296 10.0002H11.2637C11.8937 10.0002 12.4045 9.49572 12.4045 8.87341C12.4045 8.2511 11.8937 7.74661 11.2637 7.74661H6.7009C6.07091 7.74661 5.56019 8.2511 5.56019 8.87341C5.56019 9.49572 6.07091 10.0002 6.7009 10.0002H8.795C9.02191 10.0002 9.23951 10.0892 9.39996 10.2477L9.87247 10.7145C10.1399 10.9786 10.5026 11.127 10.8807 11.127H11.4063V11.1227C12.5999 11.05 13.5452 10.0707 13.5452 8.87341C13.5452 7.62879 12.5237 6.61981 11.2637 6.61981H6.7009C5.44092 6.61981 4.41948 7.62879 4.41948 8.87341C4.41948 10.118 5.44092 11.127 6.7009 11.127H8.08205C8.30896 11.127 8.52657 11.216 8.68702 11.3745L9.15952 11.8413C9.42693 12.1054 9.78961 12.2538 10.1678 12.2538H11.2637C13.1537 12.2538 14.6859 10.7404 14.6859 8.87341C14.6859 7.00646 13.1537 5.49301 11.2637 5.49301H6.7009C4.81091 5.49301 3.27877 7.00646 3.27877 8.87341C3.27877 10.7404 4.81091 12.2538 6.7009 12.2538H7.47116C7.69807 12.2538 7.91567 12.3428 8.07612 12.5013L8.54863 12.9681C8.81603 13.2322 9.17871 13.3806 9.55688 13.3806H11.2637C13.7837 13.3806 15.8266 11.3627 15.8266 8.87341C15.8266 6.38415 13.7837 4.36621 11.2637 4.36621L6.7009 4.36621C4.18091 4.36621 2.13806 6.38415 2.13806 8.87341C2.13806 11.3627 4.18092 13.3806 6.7009 13.3806Z" fill="#212326"/>
</g>
<defs>
<clipPath id="clip0_212_1147">
<rect width="13.6885" height="9.0144" fill="white" transform="translate(2.13806 4.36621)"/>
</clipPath>
</defs>
</svg>
