<svg width="616" height="460" viewBox="0 0 616 460" fill="none" xmlns="http://www.w3.org/2000/svg" xmlns:xlink="http://www.w3.org/1999/xlink">
<path d="M307.805,458.398C439.447,458.398 546.165,452.167 546.165,444.482C546.165,436.796 439.447,430.565 307.805,430.565C176.164,430.565 69.447,436.796 69.447,444.482C69.447,452.167 176.164,458.398 307.805,458.398Z" fill="#F5F5F5"/>
<path d="M429.818,133.69L417.623,128.772C417.623,128.772 401.531,158.117 396.921,159.605C390.651,161.621 377.669,167.226 369.974,168.21C368.929,169.439 367.22,173.263 367.38,174.652C377.719,178.106 400.437,173.521 405.305,169.906C416.382,161.707 429.818,133.69 429.818,133.69Z" fill="#E58A7B"/>
<path d="M433.568,127.014C435.842,135.411 423.524,152.302 423.524,152.302L407.383,143.254C407.383,143.254 410.407,136.308 414.095,129.24C420.008,117.819 430.974,117.438 433.568,127.014Z" fill="#4CAF4F"/>
<g opacity="0.2">
<path d="M433.568,127.014C435.842,135.411 423.524,152.302 423.524,152.302L407.383,143.254C407.383,143.254 410.407,136.308 414.095,129.24C420.008,117.819 430.974,117.438 433.568,127.014Z" fill="#000000"/>
</g>
<g opacity="0.2">
<path d="M413.788,146.869L420.143,150.434L421.262,130.924C417.562,133.764 414.956,142.32 413.788,146.869Z" fill="#000000"/>
</g>
<path d="M422.946,120.696C422.946,120.696 410.382,148.651 417.709,200.702L467.215,200.702C468.002,193.104 465.396,156.027 474.825,120.228C469.394,119.167 463.899,118.465 458.376,118.126C451.371,117.72 444.347,117.72 437.342,118.126C432.486,118.619 427.673,119.478 422.946,120.696Z" fill="#4CAF4F"/>
<g opacity="0.2">
<path d="M422.946,120.696C422.946,120.696 410.382,148.651 417.709,200.702L467.215,200.702C468.002,193.104 465.396,156.027 474.825,120.228C469.394,119.167 463.899,118.465 458.376,118.126C451.371,117.72 444.347,117.72 437.342,118.126C432.486,118.619 427.673,119.478 422.946,120.696Z" fill="#000000"/>
</g>
<g style="mix-blend-mode:multiply">
<path d="M411.464,445.588C411.39,446.916 430.163,447.985 453.385,447.985C476.607,447.985 495.515,446.916 495.589,445.588C495.662,444.26 476.903,443.203 453.668,443.203C430.433,443.203 411.55,444.273 411.464,445.588Z" fill="#E8ECF1"/>
</g>
<path d="M448.609,411.696L439.194,411.696L439.194,432.648L448.609,432.648L448.609,411.696Z" transform="rotate(-42.323 443.901 422.172)" fill="#E58A7B"/>
<path d="M483.664,436.135L474.407,436.135L471.014,414.707L480.271,414.707L483.664,436.135Z" fill="#E58A7B"/>
<path d="M473.768,435.065L484.168,435.065C484.348,435.065 484.523,435.13 484.66,435.247C484.797,435.364 484.889,435.526 484.918,435.704L486.258,443.929C486.286,444.135 486.27,444.345 486.209,444.544C486.149,444.744 486.047,444.928 485.909,445.084C485.772,445.24 485.602,445.365 485.412,445.45C485.222,445.535 485.015,445.578 484.807,445.576C481.181,445.514 479.435,445.293 474.862,445.293C472.047,445.293 466.256,445.588 462.347,445.588C458.438,445.588 458.179,441.753 459.79,441.396C467.018,439.835 469.821,437.708 472.231,435.643C472.656,435.27 473.202,435.064 473.768,435.065Z" fill="#263238"/>
<path d="M443.034,431.893L452.869,429.016C453.044,428.967 453.231,428.979 453.399,429.05C453.567,429.122 453.705,429.249 453.791,429.41L457.479,436.786C457.564,436.973 457.608,437.177 457.607,437.382C457.606,437.588 457.56,437.791 457.472,437.977C457.384,438.164 457.257,438.328 457.099,438.46C456.941,438.592 456.756,438.688 456.557,438.74C452.979,439.724 450.582,440.326 446.107,441.629C443.022,442.527 439.874,443.99 436.826,444.961C434.711,445.637 429.745,445.662 427.175,445.662C423.377,445.662 422.528,441.654 424.163,441.47C428.282,441.015 428.835,441.224 431.109,440.08C434.83,438.454 438.203,436.125 441.042,433.221C441.578,432.61 442.265,432.152 443.034,431.893Z" fill="#263238"/>
<path d="M371.523,168.161L361.344,163.895L357.151,175.18C361.324,175.816 365.568,175.816 369.74,175.18L371.523,168.161Z" fill="#E58A7B"/>
<path d="M353.771,163.6L353.5,171.099L357.151,175.156L361.344,163.87L353.771,163.6Z" fill="#E58A7B"/>
<path d="M447.982,413.699L438.54,413.699L438.54,424.529L447.982,424.529L447.982,413.699Z" transform="rotate(-42.22 443.261 419.114)" fill="#CF6F64"/>
<path d="M480.271,414.707L471.014,414.707L472.772,425.759L482.029,425.759L480.271,414.707Z" fill="#CF6F64"/>
<g opacity="0.2">
<path d="M416.136,186.626C416.32,188.851 416.529,191.125 416.8,193.461L453.606,181.512C459.354,179.808 464.35,176.196 467.768,171.271C467.916,167.989 468.1,164.534 468.383,160.932C468.506,159.187 468.653,157.392 468.813,155.572C468.973,153.753 469.194,151.737 469.428,149.794L416.136,186.626Z" fill="#000000"/>
</g>
<path d="M428.159,146.303L426.929,146.155C427.655,140.009 432.24,135.165 437.072,135.288L437.072,136.517C432.843,136.431 428.81,140.795 428.159,146.303Z" fill="#FFFFFF"/>
<path d="M434.711,157.65L434.502,157.65L434.502,156.421C438.731,156.58 442.702,152.167 443.354,146.672L444.583,146.819C443.931,152.831 439.493,157.65 434.711,157.65Z" fill="#FFFFFF"/>
<path d="M457.688,94.437C455.954,101.21 453.914,113.614 458.376,118.126C458.376,118.126 455.254,124.998 442.677,124.998C431.183,124.998 437.342,118.126 437.342,118.126C444.989,116.331 445.124,110.75 444.116,105.464L457.688,94.437Z" fill="#E58A7B"/>
<path d="M452.156,98.936L444.128,105.464C444.377,106.679 444.521,107.913 444.558,109.152C446.906,111.488 451.615,105.575 452.094,102.55C452.338,101.36 452.359,100.134 452.156,98.936Z" fill="#CF6F64"/>
<path d="M430.322,94.351C430.881,95.319 431.633,96.161 432.532,96.826C433.431,97.49 434.458,97.961 435.547,98.211C438.498,98.862 439.973,96.146 439.162,93.416C438.436,90.958 436.014,87.651 433.015,88.216C432.372,88.349 431.771,88.633 431.261,89.046C430.751,89.458 430.347,89.987 430.083,90.588C429.82,91.188 429.704,91.844 429.745,92.498C429.787,93.153 429.985,93.788 430.322,94.351Z" fill="#CF6F64"/>
<path d="M435.203,72.677C430.605,74.779 428.982,93.048 434.76,95.752C440.538,98.457 443.907,68.682 435.203,72.677Z" fill="#263238"/>
<path d="M459.089,84.245C457.983,93.416 457.86,98.813 452.943,103.509C451.419,105.067 449.494,106.174 447.381,106.708C445.267,107.241 443.048,107.18 440.967,106.532C438.886,105.883 437.025,104.672 435.589,103.032C434.153,101.392 433.199,99.388 432.83,97.239C431.343,89.003 433.396,75.394 442.591,71.743C444.523,70.891 446.648,70.571 448.746,70.816C450.843,71.062 452.836,71.864 454.519,73.139C456.202,74.415 457.514,76.117 458.317,78.07C459.121,80.022 459.387,82.155 459.089,84.245Z" fill="#E58A7B"/>
<path d="M443.98,77.422C450.791,75.689 455.795,74.509 454,80.176C451.627,87.749 448.775,95.076 452.598,95.408C454.934,95.617 465.261,91.24 463.945,86.802C462.802,82.942 467.633,81.885 468.494,79.93C471.678,72.849 462.568,73.784 464.191,69.481C465.814,65.178 456.815,58.244 451.898,61.699C443.894,67.28 430.163,67.194 437.379,58.011C442.554,51.458 433.322,52.798 433.322,52.798C433.322,52.798 438.903,56.105 429.511,61.22C419.578,66.678 428.687,81.344 443.98,77.422Z" fill="#263238"/>
<path d="M462.704,94.351C461.359,96.296 459.339,97.672 457.036,98.211C454,98.862 452.832,96.146 453.975,93.416C454.995,90.958 457.798,87.651 460.7,88.216C463.601,88.782 464.265,91.941 462.704,94.351Z" fill="#E58A7B"/>
<path d="M417.709,200.702C417.709,200.702 409.399,275.077 408.747,303.303C408.083,332.66 436.912,424.26 436.912,424.26L451.664,418.112C451.664,418.112 434.453,334.418 436.912,305.59C439.518,274.155 450.287,200.751 450.287,200.751L417.709,200.702Z" fill="#4CAF4F"/>
<g opacity="0.2">
<path d="M438.362,221.121C431.736,234.865 436.199,262.046 439.788,278.151C441.153,266.779 442.776,254.437 444.312,243.016C444.165,225.461 442.8,211.901 438.362,221.121Z" fill="#000000"/>
</g>
<path d="M451.012,413.244C451.086,413.244 452.758,417.94 452.758,417.94L435.744,425.095L433.064,420.104L451.012,413.244Z" fill="#4CAF4F"/>
<path d="M435.277,200.702C435.277,200.702 441.632,271.438 445.837,297.931C450.459,326.956 468.58,423.62 468.58,423.62L485.532,423.62C485.532,423.62 475.378,329.304 473.46,300.562C471.37,269.385 467.215,200.702 467.215,200.702L435.277,200.702Z" fill="#4CAF4F"/>
<path d="M485.791,419.206C485.864,419.206 486.356,423.939 486.356,423.939L467.719,423.939L466.392,418.505L485.791,419.206Z" fill="#4CAF4F"/>
<g opacity="0.2">
<path d="M479.3,413.6C479.261,413.602 479.224,413.588 479.195,413.562C479.165,413.538 479.146,413.504 479.14,413.466C479.042,412.604 469.883,327.411 468.162,301.594C466.293,273.59 462.531,211.471 462.495,210.844C462.493,210.824 462.495,210.803 462.502,210.784C462.509,210.764 462.519,210.747 462.533,210.732C462.547,210.717 462.564,210.705 462.583,210.696C462.601,210.688 462.622,210.684 462.642,210.684C462.682,210.684 462.721,210.699 462.751,210.726C462.781,210.754 462.799,210.791 462.802,210.832C462.802,211.459 466.601,273.528 468.469,301.582C470.19,327.399 479.349,412.532 479.435,413.454C479.438,413.474 479.438,413.494 479.433,413.514C479.428,413.534 479.418,413.552 479.406,413.57C479.393,413.586 479.377,413.598 479.359,413.608C479.34,413.618 479.32,413.624 479.3,413.626L479.3,413.6Z" fill="#000000"/>
</g>
<path d="M445.025,86.802C445.025,87.552 444.558,88.155 444.067,88.155C443.575,88.155 443.218,87.552 443.267,86.802C443.317,86.053 443.735,85.45 444.226,85.45C444.718,85.45 445.075,86.065 445.025,86.802Z" fill="#263238"/>
<path d="M436.592,86.802C436.592,87.552 436.113,88.155 435.633,88.155C435.154,88.155 434.785,87.552 434.822,86.802C434.859,86.053 435.301,85.45 435.793,85.45C436.285,85.45 436.641,86.065 436.592,86.802Z" fill="#263238"/>
<path d="M439.247,87.184C438.221,89.473 436.899,91.619 435.314,93.564C436.543,94.793 438.842,94.228 438.842,94.228L439.247,87.184Z" fill="#DF5753"/>
<path d="M439.469,97.362C439.44,97.362 439.412,97.356 439.386,97.345C439.36,97.334 439.336,97.317 439.316,97.297C439.297,97.276 439.282,97.251 439.272,97.225C439.262,97.198 439.258,97.169 439.26,97.141C439.263,97.081 439.289,97.025 439.332,96.984C439.376,96.942 439.433,96.92 439.493,96.92C440.434,96.926 441.363,96.722 442.214,96.322C443.065,95.922 443.816,95.337 444.411,94.608C444.453,94.571 444.508,94.551 444.564,94.551C444.621,94.551 444.676,94.571 444.718,94.608C444.758,94.65 444.78,94.705 444.78,94.762C444.78,94.819 444.758,94.875 444.718,94.916C444.081,95.69 443.279,96.311 442.371,96.734C441.462,97.158 440.471,97.372 439.469,97.362Z" fill="#263238"/>
<path d="M446.525,84.54C446.466,84.57 446.401,84.586 446.335,84.586C446.268,84.586 446.203,84.57 446.144,84.54C445.684,84.243 445.161,84.058 444.616,84C444.072,83.943 443.521,84.014 443.009,84.208C442.959,84.233 442.905,84.248 442.849,84.251C442.794,84.255 442.738,84.247 442.685,84.229C442.632,84.211 442.584,84.182 442.542,84.145C442.501,84.107 442.467,84.062 442.444,84.011C442.398,83.902 442.397,83.779 442.441,83.669C442.484,83.559 442.569,83.47 442.677,83.421C443.32,83.159 444.017,83.055 444.708,83.12C445.399,83.184 446.065,83.414 446.648,83.79C446.695,83.822 446.736,83.863 446.767,83.911C446.798,83.959 446.819,84.012 446.829,84.068C446.84,84.124 446.839,84.182 446.827,84.238C446.815,84.293 446.791,84.346 446.759,84.393C446.697,84.463 446.616,84.514 446.525,84.54Z" fill="#263238"/>
<path d="M433.334,82.082C433.269,82.066 433.209,82.032 433.162,81.983C433.121,81.943 433.089,81.895 433.067,81.843C433.044,81.79 433.033,81.733 433.033,81.676C433.033,81.619 433.044,81.562 433.067,81.509C433.089,81.457 433.121,81.409 433.162,81.369C433.633,80.84 434.22,80.428 434.877,80.163C435.534,79.899 436.243,79.79 436.949,79.844C437.005,79.853 437.059,79.873 437.108,79.904C437.156,79.934 437.198,79.974 437.23,80.022C437.262,80.069 437.285,80.122 437.295,80.178C437.306,80.235 437.305,80.292 437.293,80.348C437.266,80.462 437.199,80.562 437.104,80.63C437.009,80.698 436.893,80.729 436.777,80.717C436.218,80.682 435.659,80.774 435.141,80.987C434.623,81.2 434.161,81.528 433.789,81.946C433.733,82.009 433.661,82.054 433.581,82.078C433.501,82.102 433.415,82.103 433.334,82.082Z" fill="#263238"/>
<path d="M479.583,132.325L466.797,128.92C466.797,128.92 454.258,159.789 449.82,161.793C443.796,164.547 428.54,174.086 422.049,178.598C421.692,180.135 421.975,184.204 422.787,185.323C433.851,183.306 455.032,175.156 459.458,171.013C469.551,161.559 479.583,132.325 479.583,132.325Z" fill="#E58A7B"/>
<path d="M470.657,436.688C470.033,436.737 469.412,436.568 468.899,436.208C468.741,436.065 468.623,435.884 468.556,435.681C468.489,435.478 468.476,435.262 468.518,435.053C468.526,434.922 468.569,434.796 468.643,434.688C468.716,434.58 468.818,434.493 468.936,434.438C469.969,433.91 472.858,435.741 473.19,435.95C473.226,435.973 473.254,436.006 473.27,436.046C473.286,436.086 473.288,436.13 473.276,436.172C473.265,436.214 473.244,436.254 473.214,436.286C473.184,436.318 473.146,436.342 473.104,436.356C472.302,436.553 471.482,436.664 470.657,436.688ZM469.428,434.77C469.335,434.749 469.238,434.749 469.145,434.77C469.098,434.794 469.059,434.831 469.033,434.877C469.007,434.923 468.994,434.975 468.998,435.028C468.965,435.171 468.97,435.32 469.014,435.461C469.057,435.601 469.136,435.727 469.244,435.827C469.723,436.258 470.928,436.307 472.514,435.999C471.569,435.377 470.506,434.959 469.391,434.77L469.428,434.77Z" fill="#4CAF4F"/>
<path d="M473.042,436.356C473.01,436.366 472.976,436.366 472.944,436.356C472.022,435.84 470.289,433.811 470.547,432.778C470.585,432.615 470.678,432.469 470.809,432.364C470.941,432.259 471.104,432.202 471.272,432.201C471.437,432.179 471.605,432.192 471.764,432.241C471.923,432.29 472.07,432.373 472.194,432.483C473.214,433.356 473.276,436.036 473.276,436.171C473.282,436.212 473.274,436.253 473.254,436.289C473.234,436.324 473.203,436.352 473.165,436.368C473.124,436.377 473.081,436.372 473.042,436.356ZM471.395,432.606L471.309,432.606C471.026,432.606 470.989,432.766 470.977,432.828C470.829,433.43 471.924,434.967 472.833,435.692C472.829,434.653 472.507,433.641 471.911,432.791C471.769,432.666 471.584,432.6 471.395,432.606Z" fill="#4CAF4F"/>
<path d="M438.018,435.151C437.266,435.413 436.447,435.413 435.695,435.151C435.524,435.058 435.379,434.924 435.274,434.761C435.168,434.598 435.106,434.41 435.092,434.217C435.077,434.095 435.092,433.972 435.137,433.858C435.183,433.744 435.256,433.643 435.35,433.565C436.334,432.68 440.354,433.565 440.809,433.737C440.852,433.748 440.89,433.774 440.917,433.81C440.944,433.845 440.958,433.889 440.956,433.934C440.958,433.98 440.946,434.026 440.922,434.065C440.898,434.104 440.863,434.136 440.821,434.155C439.916,434.564 438.978,434.897 438.018,435.151ZM436.014,433.688C435.874,433.716 435.743,433.78 435.633,433.872C435.594,433.902 435.564,433.942 435.547,433.987C435.529,434.033 435.525,434.083 435.535,434.131C435.543,434.26 435.583,434.385 435.652,434.494C435.721,434.604 435.816,434.694 435.928,434.758C436.58,435.102 438.092,434.831 440.047,434.008C438.73,433.676 437.367,433.567 436.014,433.688Z" fill="#4CAF4F"/>
<path d="M440.784,434.155L440.686,434.155C439.456,433.934 436.998,432.52 436.924,431.463C436.924,431.217 437.035,430.873 437.625,430.676C437.824,430.605 438.036,430.575 438.247,430.588C438.458,430.6 438.665,430.656 438.854,430.75C440.182,431.401 440.882,433.762 440.919,433.872C440.928,433.91 440.927,433.948 440.916,433.985C440.905,434.022 440.885,434.055 440.858,434.081C440.84,434.112 440.814,434.137 440.784,434.155ZM437.871,431.045L437.748,431.045C437.367,431.18 437.367,431.34 437.367,431.389C437.367,432.028 439.149,433.196 440.391,433.59C440.105,432.602 439.499,431.738 438.67,431.131C438.423,431.005 438.138,430.975 437.871,431.045Z" fill="#4CAF4F"/>
<path d="M423.094,177.873L410.272,183.773L408.784,187.461L413.517,190.645C413.517,190.645 422.369,189.687 424.889,183.995L423.094,177.873Z" fill="#E58A7B"/>
<path d="M423.635,185.531C423.348,183.068 422.535,180.695 421.25,178.573L423.278,177.049C424.804,179.493 425.778,182.241 426.13,185.101L423.635,185.531Z" fill="#263238"/>
<path d="M425.823,179.618C426.094,180.045 426.227,180.544 426.204,181.049C426.181,181.554 426.004,182.039 425.695,182.439C425.387,182.839 424.962,183.134 424.48,183.285C423.998,183.435 423.481,183.433 423,183.28C422.518,183.126 422.096,182.827 421.79,182.425C421.485,182.023 421.31,181.536 421.291,181.031C421.272,180.526 421.409,180.028 421.683,179.603C421.957,179.179 422.355,178.849 422.823,178.659C423.349,178.392 423.959,178.342 424.52,178.522C425.082,178.701 425.55,179.095 425.823,179.618Z" fill="#263238"/>
<path d="M401.605,188.543L403.314,190.264L414.82,185.347L410.272,183.773L401.605,188.543Z" fill="#E58A7B"/>
<g opacity="0.2">
<path d="M451.012,413.244C451.086,413.244 452.758,417.94 452.758,417.94L435.744,425.095L433.064,420.104L451.012,413.244Z" fill="#000000"/>
</g>
<g opacity="0.2">
<path d="M485.791,419.206C485.864,419.206 486.356,423.939 486.356,423.939L467.719,423.939L466.392,418.505L485.791,419.206Z" fill="#000000"/>
</g>
<path d="M482.914,128.785C486.295,139.689 473.079,154.601 473.079,154.601L454.823,147.151C456.987,140.848 459.482,134.664 462.298,128.625C467.904,116.54 479.496,117.782 482.914,128.785Z" fill="#4CAF4F"/>
<g opacity="0.2">
<path d="M482.914,128.785C486.295,139.689 473.079,154.601 473.079,154.601L454.823,147.151C456.987,140.848 459.482,134.664 462.298,128.625C467.904,116.54 479.496,117.782 482.914,128.785Z" fill="#000000"/>
</g>
<path d="M301.511,19.532L293.656,19.532L293.656,20.798L301.511,20.798L301.511,19.532Z" fill="#4CAF4F"/>
<path d="M413.918,79.594L392.798,79.594L392.798,80.86L413.918,80.86L413.918,79.594Z" transform="rotate(-174.84 403.358 80.227)" fill="#4CAF4F"/>
<path d="M400.757,25.212L255.693,25.212L242.195,327.288L387.259,327.288L400.757,25.212Z" fill="#4CAF4F"/>
<g opacity="0.56">
<path d="M396.429,29.367L251.366,29.367L237.868,331.443L382.931,331.443L396.429,29.367Z" fill="#FAFAFA"/>
</g>
<g opacity="0.07">
<path d="M392.102,33.51L247.039,33.51L233.528,335.586L378.592,335.586L392.102,33.51Z" fill="#4CAF4F"/>
</g>
<path d="M375.592,165.259L251.772,165.259L250.739,188.371L374.559,188.371L375.592,165.259Z" fill="#FFFFFF"/>
<path d="M319.865,148.393L252.522,148.393L252.067,158.731L319.411,158.731L319.865,148.393Z" fill="#4CAF4F"/>
<path d="M372.801,227.637L248.981,227.637L247.948,250.749L371.769,250.749L372.801,227.637Z" fill="#FFFFFF"/>
<g opacity="0.47">
<path d="M350.095,281.961L266.831,281.961L265.59,309.659L348.854,309.659L350.095,281.961Z" fill="#4CAF4F"/>
</g>
<path d="M344.526,313.962L261.262,313.962C261.226,313.971 261.188,313.971 261.152,313.962C261.14,313.926 261.14,313.887 261.152,313.851L262.381,286.141C262.381,286.123 262.385,286.104 262.392,286.087C262.4,286.069 262.411,286.054 262.425,286.041C262.439,286.028 262.455,286.019 262.473,286.013C262.491,286.007 262.51,286.004 262.529,286.006L345.792,286.006C345.808,285.999 345.825,285.995 345.842,285.995C345.859,285.995 345.876,285.999 345.891,286.006C345.899,286.021 345.904,286.038 345.904,286.055C345.904,286.073 345.899,286.09 345.891,286.105L344.686,313.876C344.671,313.904 344.648,313.928 344.62,313.943C344.591,313.959 344.558,313.965 344.526,313.962ZM261.41,313.666L344.379,313.666L345.608,286.252L262.639,286.252L261.41,313.666Z" fill="#FFFFFF"/>
<path d="M305.322,210.77L249.731,210.77L249.276,221.121L304.855,221.121L305.322,210.77Z" fill="#4CAF4F"/>
<path d="M348.509,90.601C348.191,97.327 345.8,103.79 341.662,109.103C338.599,113.115 334.657,116.373 330.139,118.626C325.622,120.878 320.648,122.065 315.6,122.097C311.52,122.128 307.478,121.323 303.721,119.733C299.964,118.143 296.573,115.8 293.756,112.849C290.939,109.899 288.756,106.403 287.341,102.576C285.926,98.75 285.31,94.674 285.53,90.601C285.962,82.148 289.607,74.179 295.72,68.325C301.833,62.47 309.951,59.172 318.415,59.105C322.497,59.067 326.544,59.866 330.305,61.454C334.067,63.042 337.463,65.384 340.283,68.335C343.103,71.287 345.289,74.786 346.704,78.616C348.118,82.445 348.733,86.524 348.509,90.601Z" fill="#FFFFFF"/>
<path d="M351.472,65.694C351.392,67.483 350.756,69.202 349.653,70.612C348.836,71.678 347.787,72.543 346.586,73.142C345.384,73.74 344.062,74.056 342.719,74.066C341.418,74.074 340.136,73.763 338.983,73.161C337.83,72.559 336.842,71.684 336.105,70.612C335.13,69.163 334.647,67.439 334.728,65.694C334.847,63.45 335.818,61.336 337.442,59.782C339.066,58.229 341.222,57.354 343.469,57.335C344.553,57.325 345.628,57.537 346.627,57.958C347.626,58.38 348.528,59.001 349.278,59.784C350.028,60.567 350.609,61.496 350.987,62.512C351.364,63.529 351.529,64.612 351.472,65.694Z" fill="#4CAF4F"/>
<path d="M265.11,176.815C265.051,177.806 264.619,178.737 263.9,179.422C263.181,180.106 262.23,180.492 261.238,180.503C260.759,180.509 260.283,180.416 259.841,180.231C259.4,180.046 259,179.772 258.668,179.426C258.337,179.08 258.079,178.67 257.912,178.221C257.745,177.772 257.672,177.294 257.697,176.815C257.75,175.822 258.181,174.888 258.901,174.202C259.621,173.516 260.576,173.132 261.57,173.127C262.048,173.123 262.523,173.217 262.964,173.403C263.405,173.589 263.803,173.863 264.135,174.208C264.466,174.553 264.724,174.963 264.891,175.411C265.059,175.859 265.134,176.337 265.11,176.815Z" fill="#263238"/>
<path d="M281.682,176.815C281.626,177.807 281.194,178.74 280.475,179.425C279.756,180.11 278.803,180.496 277.809,180.503C277.331,180.507 276.857,180.413 276.417,180.227C275.977,180.041 275.579,179.767 275.248,179.422C274.918,179.076 274.661,178.667 274.495,178.219C274.329,177.77 274.256,177.293 274.281,176.815C274.334,175.825 274.763,174.892 275.481,174.206C276.198,173.521 277.149,173.135 278.141,173.127C278.62,173.121 279.096,173.214 279.538,173.399C279.98,173.585 280.379,173.859 280.711,174.204C281.042,174.55 281.3,174.96 281.467,175.409C281.634,175.858 281.707,176.337 281.682,176.815Z" fill="#263238"/>
<path d="M298.266,176.815C298.21,177.807 297.778,178.74 297.059,179.425C296.34,180.11 295.387,180.496 294.393,180.503C293.915,180.507 293.44,180.413 292.999,180.228C292.558,180.042 292.16,179.768 291.828,179.422C291.497,179.077 291.239,178.668 291.071,178.219C290.904,177.771 290.829,177.293 290.853,176.815C290.909,175.824 291.341,174.891 292.06,174.206C292.779,173.521 293.732,173.135 294.725,173.127C295.204,173.121 295.68,173.214 296.121,173.399C296.563,173.585 296.963,173.859 297.294,174.204C297.626,174.55 297.884,174.96 298.051,175.409C298.218,175.858 298.291,176.337 298.266,176.815Z" fill="#263238"/>
<path d="M262.32,239.193C262.261,240.183 261.828,241.115 261.109,241.799C260.391,242.483 259.439,242.87 258.447,242.881C257.968,242.885 257.494,242.791 257.053,242.605C256.612,242.419 256.213,242.145 255.882,241.8C255.55,241.454 255.293,241.045 255.125,240.597C254.958,240.148 254.883,239.671 254.907,239.193C254.963,238.201 255.394,237.268 256.114,236.583C256.833,235.898 257.786,235.512 258.779,235.505C259.258,235.501 259.732,235.594 260.173,235.78C260.614,235.966 261.013,236.24 261.344,236.585C261.676,236.931 261.933,237.34 262.101,237.788C262.269,238.237 262.343,238.714 262.32,239.193Z" fill="#263238"/>
<path d="M278.891,239.193C278.835,240.182 278.405,241.113 277.689,241.798C276.972,242.483 276.022,242.87 275.031,242.881C274.552,242.886 274.077,242.794 273.635,242.608C273.193,242.423 272.794,242.149 272.462,241.804C272.13,241.458 271.873,241.048 271.705,240.599C271.538,240.15 271.465,239.671 271.491,239.193C271.547,238.201 271.978,237.268 272.697,236.583C273.417,235.898 274.37,235.512 275.363,235.505C275.841,235.5 276.315,235.594 276.755,235.78C277.196,235.966 277.594,236.241 277.924,236.586C278.255,236.932 278.511,237.341 278.677,237.789C278.844,238.238 278.916,238.715 278.891,239.193Z" fill="#263238"/>
<path d="M295.512,239.193C295.456,240.184 295.024,241.117 294.305,241.802C293.586,242.487 292.633,242.873 291.64,242.881C291.161,242.883 290.688,242.788 290.248,242.601C289.807,242.415 289.41,242.141 289.078,241.796C288.747,241.451 288.49,241.042 288.321,240.595C288.153,240.147 288.077,239.67 288.099,239.193C288.158,238.202 288.59,237.271 289.309,236.586C290.028,235.902 290.979,235.515 291.971,235.505C292.451,235.499 292.926,235.592 293.368,235.777C293.81,235.962 294.209,236.236 294.541,236.582C294.873,236.927 295.13,237.337 295.297,237.786C295.464,238.236 295.537,238.714 295.512,239.193Z" fill="#263238"/>
<path d="M312.059,239.193C312,240.183 311.568,241.115 310.849,241.799C310.13,242.483 309.179,242.87 308.187,242.881C307.709,242.883 307.235,242.788 306.795,242.601C306.354,242.415 305.957,242.141 305.626,241.796C305.294,241.451 305.037,241.042 304.869,240.595C304.7,240.147 304.624,239.67 304.646,239.193C304.705,238.202 305.138,237.271 305.856,236.586C306.575,235.902 307.526,235.515 308.519,235.505C308.997,235.501 309.472,235.594 309.913,235.78C310.354,235.966 310.752,236.24 311.084,236.585C311.415,236.931 311.673,237.34 311.84,237.788C312.008,238.237 312.083,238.714 312.059,239.193Z" fill="#263238"/>
<path d="M328.705,239.193C328.645,240.183 328.213,241.115 327.494,241.799C326.776,242.483 325.824,242.87 324.832,242.881C324.353,242.886 323.878,242.794 323.436,242.608C322.994,242.423 322.595,242.149 322.263,241.804C321.931,241.458 321.674,241.048 321.507,240.599C321.339,240.15 321.266,239.671 321.292,239.193C321.348,238.201 321.779,237.268 322.499,236.583C323.218,235.898 324.171,235.512 325.164,235.505C325.643,235.501 326.117,235.594 326.558,235.78C326.999,235.966 327.398,236.24 327.729,236.585C328.061,236.931 328.318,237.34 328.486,237.788C328.654,238.237 328.728,238.714 328.705,239.193Z" fill="#263238"/>
<path d="M317.482,92.51C324.678,92.51 330.513,86.935 330.513,80.057C330.513,73.179 324.678,67.604 317.482,67.604C310.285,67.604 304.45,73.179 304.45,80.057C304.45,86.935 310.285,92.51 317.482,92.51Z" transform="rotate(-88.72 317.482 80.057)" fill="#4CAF4F"/>
<path d="M341.662,109.103C338.599,113.116 334.657,116.373 330.139,118.626C325.622,120.878 320.648,122.066 315.6,122.097C310.704,122.139 305.874,120.975 301.535,118.709C297.196,116.443 293.481,113.144 290.718,109.103C296.692,103.153 306.146,99.268 316.62,99.268C327.094,99.268 336.216,103.153 341.662,109.103Z" fill="#4CAF4F"/>
<g opacity="0.1">
<path d="M317.482,92.51C324.678,92.51 330.513,86.935 330.513,80.057C330.513,73.179 324.678,67.604 317.482,67.604C310.285,67.604 304.45,73.179 304.45,80.057C304.45,86.935 310.285,92.51 317.482,92.51Z" transform="rotate(-88.72 317.482 80.057)" fill="#FFFFFF"/>
</g>
<g opacity="0.1">
<path d="M341.662,109.103C338.599,113.116 334.657,116.373 330.139,118.626C325.622,120.878 320.648,122.066 315.6,122.097C310.704,122.139 305.874,120.975 301.535,118.709C297.196,116.443 293.481,113.144 290.718,109.103C296.692,103.153 306.146,99.268 316.62,99.268C327.094,99.268 336.216,103.153 341.662,109.103Z" fill="#FFFFFF"/>
</g>
<path d="M160.787,193.94C159.62,196.497 158.39,199.312 157.321,202.042C156.251,204.771 155.157,207.586 154.21,210.389C152.278,215.913 150.806,221.587 149.809,227.354L149.539,229.161C149.513,229.471 149.542,229.783 149.625,230.083C149.915,231.102 150.372,232.066 150.977,232.935C152.556,235.186 154.387,237.248 156.436,239.082C158.595,241.091 160.86,242.982 163.222,244.749C165.582,246.569 168.065,248.339 170.512,250.011L168.213,254.326C162.371,251.781 156.826,248.602 151.678,244.848C148.931,242.844 146.452,240.498 144.302,237.865C143.027,236.298 142.033,234.522 141.364,232.616C140.975,231.425 140.775,230.18 140.774,228.927C140.774,228.632 140.774,228.202 140.774,227.993L140.774,227.391L140.897,226.161C141.601,219.757 142.948,213.439 144.917,207.303C145.875,204.279 146.896,201.267 148.064,198.329C149.232,195.391 150.436,192.514 151.924,189.527L160.787,193.94Z" fill="#E58A7B"/>
<path d="M168.778,249.249L177.47,244.848L175.22,254.387C175.22,254.387 169.258,256.059 166.492,253.158L168.778,249.249Z" fill="#E58A7B"/>
<path d="M185.424,246.409L183.113,254.301L175.22,254.387L177.47,244.848L185.424,246.409Z" fill="#E58A7B"/>
<path d="M197.693,147.913C198.157,149.617 198.805,151.265 199.623,152.83C199.384,153.102 199.076,153.303 198.732,153.413C198.388,153.524 198.02,153.539 197.668,153.457L197.693,147.913Z" fill="#DF5753"/>
<path d="M197.434,147.987C197.944,147.987 198.356,147.354 198.356,146.573C198.356,145.793 197.944,145.16 197.434,145.16C196.925,145.16 196.512,145.793 196.512,146.573C196.512,147.354 196.925,147.987 197.434,147.987Z" fill="#263238"/>
<path d="M197.164,145.209L199.033,144.68C199.033,144.68 198.123,146.131 197.164,145.209Z" fill="#263238"/>
<path d="M173.683,156.937C174.802,162.653 175.921,173.139 171.913,176.963C171.913,176.963 173.487,182.765 184.121,182.765C195.812,182.765 189.702,176.963 189.702,176.963C183.322,175.438 183.481,170.705 184.6,166.255L173.683,156.937Z" fill="#E58A7B"/>
<path d="M170.573,143.906C171.163,153.457 171.212,157.514 176.031,162.419C183.297,169.796 194.902,166.993 197.176,157.502C199.229,148.897 197.926,134.735 188.571,130.936C186.517,130.09 184.282,129.782 182.076,130.041C179.87,130.3 177.767,131.117 175.965,132.415C174.163,133.714 172.722,135.451 171.779,137.461C170.835,139.472 170.42,141.69 170.573,143.906Z" fill="#E58A7B"/>
<path d="M171.52,133.161C166.725,134.907 160.333,133.604 162.84,148.393C165.496,164.055 161.414,169.206 161.414,169.206C161.414,169.206 179.597,173.078 198.16,168.972C198.16,168.972 192.492,159.064 194.078,151.761C196.107,142.541 194.509,139.136 194.509,139.136C194.509,139.136 178.257,130.703 171.52,133.161Z" fill="#263238"/>
<path d="M191.804,148.884C191.809,150.701 192.329,152.478 193.304,154.011C194.607,156.002 196.144,155.24 196.525,153.126C196.869,151.269 196.611,147.987 194.951,146.709C193.292,145.43 191.829,146.684 191.804,148.884Z" fill="#E58A7B"/>
<path d="M167.352,134.772C165.975,130.899 172.54,124.937 186.432,127.395C200.323,129.854 200.926,141.422 200.926,141.422L198.123,138.079L198.246,141.594L183.973,144.336L167.352,134.772Z" fill="#263238"/>
<path d="M168.532,177.615C168.45,177.053 168.591,176.482 168.924,176.023C169.257,175.564 169.756,175.252 170.315,175.156C174.642,174.443 184.477,172.992 189.419,173.681C193.107,174.197 194.066,176.336 194.226,178.094C194.251,178.402 194.21,178.711 194.105,179.002C194.001,179.293 193.835,179.557 193.62,179.779C193.404,180 193.144,180.173 192.856,180.285C192.568,180.397 192.26,180.447 191.952,180.43L170.585,179.471C170.082,179.445 169.602,179.247 169.228,178.909C168.854,178.57 168.608,178.113 168.532,177.615Z" fill="#4CAF4F"/>
<g opacity="0.6">
<path d="M168.532,177.615C168.45,177.053 168.591,176.482 168.924,176.023C169.257,175.564 169.756,175.252 170.315,175.156C174.642,174.443 184.477,172.992 189.419,173.681C193.107,174.197 194.066,176.336 194.226,178.094C194.251,178.402 194.21,178.711 194.105,179.002C194.001,179.293 193.835,179.557 193.62,179.779C193.404,180 193.144,180.173 192.856,180.285C192.568,180.397 192.26,180.447 191.952,180.43L170.585,179.471C170.082,179.445 169.602,179.247 169.228,178.909C168.854,178.57 168.608,178.113 168.532,177.615Z" fill="#000000"/>
</g>
<path d="M180.887,392.382L188.817,397.889L202.081,379.904L194.152,374.409L180.887,392.382Z" fill="#E58A7B"/>
<path d="M162.398,392.025L170.77,396.795L182.51,377.777L174.138,373.007L162.398,392.025Z" fill="#E58A7B"/>
<path d="M202.069,379.904L195.234,389.173L187.305,383.678L194.14,374.409L202.069,379.904Z" fill="#CF6F64"/>
<path d="M174.126,373.007L182.51,377.789L176.462,387.587L168.078,382.805L174.126,373.007Z" fill="#CF6F64"/>
<path d="M187.575,237.656C187.575,237.656 218.53,276.663 212.715,313.974C208.031,344.105 180.863,384.907 180.863,384.907L168.09,378.564C177.093,360.524 184.776,341.854 191.079,322.702C193.022,316.756 193.59,310.446 192.738,304.249C191.886,298.052 189.637,292.129 186.161,286.928C170.475,264.025 145.347,277.659 162.25,237.656L187.575,237.656Z" fill="#4CAF4F"/>
<g opacity="0.6">
<path d="M187.575,237.656C187.575,237.656 218.53,276.663 212.715,313.974C208.031,344.105 180.863,384.907 180.863,384.907L168.09,378.564C177.093,360.524 184.776,341.854 191.079,322.702C193.022,316.756 193.59,310.446 192.738,304.249C191.886,298.052 189.637,292.129 186.161,286.928C170.475,264.025 145.347,277.659 162.25,237.656L187.575,237.656Z" fill="#000000"/>
</g>
<g opacity="0.4">
<path d="M202.757,262.71L198.258,258.235C198.258,258.592 206.974,312.401 209.421,327.522C210.864,323.104 211.97,318.584 212.728,313.999C215.604,295.694 209.593,276.995 202.757,262.71Z" fill="#000000"/>
</g>
<path d="M201.393,237.656C201.393,237.656 238.667,286.682 239.724,316.076C240.597,340.663 199.155,388.3 199.155,388.3L187.108,380.506C187.108,380.506 211.363,346.675 217.473,319.039C215.112,291.649 165.201,237.656 165.201,237.656L201.393,237.656Z" fill="#4CAF4F"/>
<g opacity="0.6">
<path d="M201.393,237.656C201.393,237.656 238.667,286.682 239.724,316.076C240.597,340.663 199.155,388.3 199.155,388.3L187.108,380.506C187.108,380.506 211.363,346.675 217.473,319.039C215.112,291.649 165.201,237.656 165.201,237.656L201.393,237.656Z" fill="#000000"/>
</g>
<path d="M155.28,179.151C151.297,180.098 147.474,194.579 147.474,194.579L163.049,204.98C163.049,204.98 168.237,193.522 166.418,188.506C164.537,183.282 160.283,177.959 155.28,179.151Z" fill="#4CAF4F"/>
<g opacity="0.2">
<path d="M158.329,188.482L157.247,201.107L163.037,204.992C164.636,201.393 165.82,197.623 166.565,193.756L158.329,188.482Z" fill="#000000"/>
</g>
<path d="M206.003,179.434C206.003,179.434 210.601,181.044 201.393,237.644L162.226,237.644C162.89,221.662 162.902,211.827 155.28,179.151C160.764,178.021 166.323,177.29 171.913,176.963C177.835,176.538 183.78,176.538 189.702,176.963C197.348,177.664 206.003,179.434 206.003,179.434Z" fill="#4CAF4F"/>
<path d="M209.986,188.482C210.871,190.941 211.806,193.584 212.789,196.129C213.772,198.673 214.707,201.292 215.703,203.873L218.714,211.594L219.477,213.524L219.87,214.483L220.054,214.962C220.054,215.048 220.054,215.048 220.054,215.036C219.83,214.719 219.535,214.458 219.194,214.274C218.708,213.988 218.159,213.823 217.596,213.794C217.127,213.78 216.662,213.868 216.231,214.052C215.666,214.311 215.666,214.421 215.678,214.409C215.78,214.327 215.871,214.232 215.948,214.126C216.629,213.233 217.218,212.273 217.706,211.262C218.284,210.131 218.837,208.926 219.391,207.709C220.472,205.25 221.468,202.706 222.464,200.136C223.46,197.567 224.406,194.973 225.328,192.354L228.131,184.511L232.864,185.741C231.93,191.346 230.725,196.805 229.275,202.361C228.574,205.127 227.75,207.869 226.816,210.635C226.349,212.024 225.832,213.401 225.242,214.815C224.627,216.349 223.87,217.823 222.98,219.216C222.653,219.685 222.292,220.128 221.898,220.543C221.271,221.221 220.509,221.762 219.661,222.129C218.909,222.452 218.094,222.603 217.276,222.572C216.36,222.538 215.467,222.271 214.682,221.797C213.756,221.219 212.987,220.421 212.445,219.474C212.26,219.154 212.101,218.835 211.99,218.601L211.756,218.134L211.289,217.175L210.355,215.27C209.126,212.712 207.896,210.131 206.827,207.537C205.757,204.943 204.626,202.312 203.569,199.669C202.512,197.026 201.565,194.383 200.668,191.531L209.986,188.482Z" fill="#E58A7B"/>
<path d="M206.003,179.434C210.711,180.552 216.01,194.469 216.01,194.469L202.008,206.381C202.008,206.381 192.947,191.211 194.779,186.207C196.685,180.995 199.856,177.971 206.003,179.434Z" fill="#4CAF4F"/>
<path d="M230.356,180.11L235.274,176.004L238.691,181.327L236.171,185.765C236.171,185.765 232.164,189.453 228.623,187.572C228.061,186.309 227.926,184.897 228.239,183.551C228.552,182.204 229.295,180.996 230.356,180.11Z" fill="#E58A7B"/>
<path d="M244.15,176.016L243.781,177.356L235.999,178.659L235.237,176.004L244.15,176.016Z" fill="#E58A7B"/>
<path d="M200.114,388.928L186.075,379.855L188.595,375.479L204.368,385.178L200.114,388.928Z" fill="#4CAF4F"/>
<path d="M176.265,396.156C175.033,396.006 173.85,395.586 172.798,394.927C172.755,394.912 172.717,394.883 172.691,394.846C172.664,394.809 172.65,394.764 172.65,394.718C172.65,394.672 172.664,394.627 172.691,394.59C172.717,394.552 172.755,394.524 172.798,394.509C173.179,394.386 176.486,393.365 177.445,394.152C177.553,394.242 177.635,394.359 177.682,394.49C177.73,394.622 177.741,394.764 177.716,394.902C177.699,395.124 177.625,395.337 177.503,395.522C177.38,395.707 177.212,395.857 177.015,395.959C176.785,396.085 176.527,396.153 176.265,396.156ZM173.499,394.804C175.036,395.591 176.265,395.873 176.855,395.578C176.984,395.507 177.092,395.404 177.169,395.279C177.247,395.155 177.291,395.012 177.298,394.865C177.298,394.669 177.298,394.583 177.187,394.533C176.671,394.115 174.827,394.435 173.474,394.804L173.499,394.804Z" fill="#263238"/>
<path d="M172.884,395.013C172.819,395.012 172.758,394.985 172.712,394.939C172.694,394.905 172.684,394.867 172.684,394.828C172.684,394.79 172.694,394.752 172.712,394.718C172.712,394.607 173.511,391.939 174.765,391.337C174.925,391.264 175.099,391.226 175.275,391.226C175.451,391.226 175.625,391.264 175.786,391.337C175.958,391.391 176.108,391.502 176.21,391.651C176.313,391.801 176.362,391.98 176.351,392.161C176.265,393.267 174.015,394.791 172.983,395.05L172.884,395.013ZM175.269,391.657C175.15,391.66 175.032,391.69 174.925,391.743C174.163,392.111 173.536,393.55 173.229,394.423C174.31,393.968 175.798,392.763 175.847,392.087C175.847,391.976 175.847,391.841 175.564,391.718C175.472,391.669 175.373,391.635 175.269,391.62L175.269,391.657Z" fill="#263238"/>
<path d="M193.808,401.467C192.419,401.467 190.489,399.684 189.431,398.59C189.404,398.552 189.39,398.507 189.39,398.461C189.39,398.415 189.404,398.369 189.431,398.332C189.456,398.292 189.49,398.26 189.531,398.238C189.572,398.217 189.619,398.206 189.665,398.209C190.157,398.209 194.423,398.848 195.025,400.053C195.089,400.161 195.122,400.284 195.122,400.409C195.122,400.535 195.089,400.658 195.025,400.766C194.935,400.953 194.798,401.115 194.628,401.236C194.458,401.356 194.261,401.431 194.054,401.454L193.808,401.467ZM190.243,398.762C191.792,400.262 193.156,401.098 193.931,400.999C194.066,400.982 194.196,400.931 194.307,400.852C194.419,400.772 194.509,400.667 194.57,400.545C194.598,400.503 194.612,400.453 194.612,400.403C194.612,400.353 194.598,400.304 194.57,400.262C194.25,399.598 191.976,399.032 190.243,398.762Z" fill="#263238"/>
<path d="M190.378,398.701C190.102,398.708 189.826,398.688 189.554,398.639C189.516,398.633 189.481,398.618 189.45,398.594C189.42,398.571 189.397,398.539 189.382,398.504C189.364,398.468 189.354,398.428 189.354,398.387C189.354,398.347 189.364,398.306 189.382,398.27C189.456,398.184 191.116,396.18 192.689,396.045C193.135,396.011 193.576,396.152 193.918,396.439C194.398,396.857 194.373,397.225 194.25,397.459C193.943,398.295 191.816,398.701 190.378,398.701ZM190.058,398.246C191.435,398.319 193.636,397.865 193.918,397.262C193.918,397.262 194.017,397.066 193.697,396.795C193.57,396.685 193.421,396.601 193.261,396.55C193.1,396.5 192.931,396.483 192.763,396.5C191.703,396.796 190.759,397.409 190.058,398.258L190.058,398.246Z" fill="#263238"/>
<path d="M173.216,393.685L162.791,390.734C162.612,390.68 162.418,390.694 162.248,390.773C162.078,390.853 161.943,390.992 161.869,391.165L158.353,399.069C158.271,399.272 158.232,399.489 158.24,399.708C158.247,399.927 158.301,400.141 158.397,400.337C158.494,400.533 158.63,400.707 158.799,400.847C158.967,400.986 159.163,401.089 159.374,401.147C163.062,402.106 164.832,402.376 169.417,403.692C172.245,404.479 176.277,405.941 180.174,407.048C184.071,408.154 185.374,404.356 183.862,403.544C177.027,399.93 176.486,397.397 174.618,394.693C174.283,394.203 173.787,393.846 173.216,393.685Z" fill="#4CAF4F"/>
<path d="M189.714,397.152L180.814,391.005C180.663,390.895 180.477,390.844 180.291,390.862C180.105,390.881 179.932,390.966 179.806,391.103L173.905,397.447C173.761,397.611 173.654,397.803 173.59,398.012C173.526,398.221 173.508,398.44 173.536,398.657C173.564,398.873 173.637,399.081 173.752,399.267C173.866,399.452 174.019,399.611 174.2,399.733C177.335,401.836 178.957,402.684 182.879,405.401C185.338,407.073 190.095,410.785 193.414,413.096C196.734,415.407 199.205,412.236 198.024,410.982C192.738,405.339 191.583,401.799 190.71,398.59C190.558,398.008 190.206,397.498 189.714,397.152Z" fill="#4CAF4F"/>
<path d="M182.498,385.719L166.455,377.741L168.114,373.389L185.252,381.797L182.498,385.719Z" fill="#4CAF4F"/>
<path d="M161.636,235.344L160.283,238.885C160.148,239.155 160.468,239.438 160.923,239.438L201.59,239.438C201.946,239.438 202.241,239.266 202.266,239.045L202.61,235.529C202.61,235.295 202.327,235.086 201.946,235.086L162.275,235.086C162.156,235.075 162.035,235.093 161.924,235.138C161.813,235.182 161.714,235.253 161.636,235.344Z" fill="#4CAF4F"/>
<g opacity="0.4">
<path d="M161.636,235.344L160.283,238.885C160.148,239.155 160.468,239.438 160.923,239.438L201.59,239.438C201.946,239.438 202.241,239.266 202.266,239.045L202.61,235.529C202.61,235.295 202.327,235.086 201.946,235.086L162.275,235.086C162.156,235.075 162.035,235.093 161.924,235.138C161.813,235.182 161.714,235.253 161.636,235.344Z" fill="#FFFFFF"/>
</g>
<path d="M168.041,239.783L166.971,239.783C166.762,239.783 166.602,239.672 166.615,239.537L167.119,234.976C167.119,234.853 167.315,234.742 167.524,234.742L168.594,234.742C168.803,234.742 168.963,234.853 168.95,234.976L168.446,239.537C168.434,239.672 168.25,239.783 168.041,239.783Z" fill="#4CAF4F"/>
<path d="M193.119,239.783L192.062,239.783C191.853,239.783 191.693,239.672 191.706,239.537L192.197,234.976C192.197,234.853 192.406,234.742 192.615,234.742L193.673,234.742C193.882,234.742 194.054,234.853 194.029,234.976L193.537,239.537C193.476,239.672 193.341,239.783 193.119,239.783Z" fill="#4CAF4F"/>
<g style="mix-blend-mode:multiply">
<path d="M167.106,447.973C185.295,447.973 200.041,446.905 200.041,445.588C200.041,444.271 185.295,443.203 167.106,443.203C148.917,443.203 134.172,444.271 134.172,445.588C134.172,446.905 148.917,447.973 167.106,447.973Z" fill="#F5F5F5"/>
</g>
<path d="M187.169,442.22C181.342,440.523 174.876,438.347 170.966,436.073C170.856,435.999 170.733,435.963 170.622,435.901L170.622,409.519L182.412,409.519C183.307,409.466 184.148,409.073 184.762,408.421C185.377,407.769 185.72,406.906 185.72,406.009C185.72,405.113 185.377,404.25 184.762,403.598C184.148,402.945 183.307,402.553 182.412,402.5L170.684,402.5L170.684,282.245L163.603,282.245L163.603,402.5L151.887,402.5C151.409,402.471 150.929,402.541 150.479,402.705C150.029,402.868 149.616,403.122 149.268,403.451C148.919,403.78 148.641,404.176 148.451,404.616C148.261,405.056 148.163,405.53 148.163,406.009C148.163,406.489 148.261,406.963 148.451,407.403C148.641,407.843 148.919,408.239 149.268,408.568C149.616,408.897 150.029,409.151 150.479,409.314C150.929,409.478 151.409,409.548 151.887,409.519L163.603,409.519L163.603,435.864C163.492,435.864 163.381,435.963 163.271,436.036C159.3,438.347 152.883,440.523 147.056,442.183C146.662,442.302 146.324,442.558 146.103,442.905C145.882,443.251 145.792,443.666 145.85,444.073C145.908,444.48 146.11,444.853 146.419,445.124C146.728,445.395 147.124,445.547 147.535,445.551L186.69,445.551C187.083,445.525 187.455,445.364 187.743,445.096C188.032,444.828 188.22,444.469 188.276,444.08C188.332,443.69 188.253,443.292 188.052,442.954C187.85,442.616 187.539,442.356 187.169,442.22Z" fill="#E0E0E0"/>
<path d="M188.977,270L145.261,270C141.744,270 138.893,272.851 138.893,276.368L138.893,289.362C138.893,292.879 141.744,295.73 145.261,295.73L188.977,295.73C192.493,295.73 195.345,292.879 195.345,289.362L195.345,276.368C195.345,272.851 192.493,270 188.977,270Z" fill="#4CAF4F"/>
<path d="M144.855,295.743L144.855,297.98C144.855,299.824 146.859,301.324 149.318,301.324L184.969,301.324C187.428,301.324 189.431,299.824 189.431,297.98L189.431,295.743L144.855,295.743Z" fill="#4CAF4F"/>
<g opacity="0.3">
<path d="M144.855,295.743L144.855,297.98C144.855,299.824 146.859,301.324 149.318,301.324L184.969,301.324C187.428,301.324 189.431,299.824 189.431,297.98L189.431,295.743L144.855,295.743Z" fill="#FFFFFF"/>
</g>
</svg>
