<svg width="10" height="8" viewBox="0 0 10 8" fill="none" xmlns="http://www.w3.org/2000/svg" xmlns:xlink="http://www.w3.org/1999/xlink">
<path d="M4.642,1.455L4.665,1.824L4.291,1.779C2.931,1.606 1.743,1.017 0.734,0.029L0.241,-0.462L0.114,-0.1C-0.155,0.708 0.016,1.56 0.577,2.134C0.876,2.451 0.809,2.496 0.293,2.307C0.114,2.247 -0.043,2.202 -0.058,2.224C-0.111,2.277 0.069,2.964 0.211,3.235C0.405,3.612 0.801,3.982 1.235,4.201L1.601,4.374L1.167,4.382C0.749,4.382 0.734,4.389 0.779,4.548C0.928,5.038 1.519,5.559 2.176,5.785L2.639,5.944L2.236,6.185C1.638,6.532 0.936,6.728 0.233,6.743C-0.103,6.751 -0.38,6.781 -0.38,6.804C-0.38,6.879 0.532,7.302 1.063,7.468C2.654,7.958 4.545,7.747 5.965,6.909C6.974,6.313 7.983,5.129 8.454,3.982C8.708,3.371 8.962,2.254 8.962,1.719C8.962,1.372 8.984,1.326 9.403,0.911C9.649,0.67 9.881,0.406 9.926,0.331C10,0.187 9.993,0.187 9.612,0.315C8.977,0.542 8.887,0.512 9.201,0.172C9.432,-0.069 9.709,-0.507 9.709,-0.635C9.709,-0.658 9.597,-0.62 9.47,-0.552C9.335,-0.477 9.036,-0.364 8.812,-0.296L8.409,-0.167L8.042,-0.416C7.841,-0.552 7.557,-0.703 7.407,-0.748C7.026,-0.854 6.443,-0.839 6.1,-0.718C5.165,-0.379 4.575,0.497 4.642,1.455Z" clip-rule="evenodd" fill-rule="evenodd" fill="#FFFFFF"/>
</svg>
