<svg width="32" height="28" viewBox="0 0 32 28" fill="none" xmlns="http://www.w3.org/2000/svg" xmlns:xlink="http://www.w3.org/1999/xlink">
<path d="M15.042,7.353L15.109,8.461L13.99,8.325C9.916,7.805 6.357,6.043 3.335,3.083L1.858,1.614L1.477,2.698C0.671,5.116 1.186,7.67 2.865,9.387C3.76,10.336 3.559,10.472 2.014,9.907C1.477,9.726 1.007,9.591 0.962,9.658C0.806,9.817 1.343,11.873 1.768,12.686C2.35,13.816 3.537,14.924 4.835,15.579L5.932,16.099L4.633,16.121C3.38,16.121 3.335,16.144 3.469,16.618C3.917,18.087 5.685,19.646 7.655,20.324L9.043,20.799L7.834,21.522C6.043,22.561 3.939,23.149 1.835,23.194C0.828,23.217 0,23.307 0,23.375C0,23.601 2.731,24.866 4.32,25.364C9.088,26.832 14.751,26.2 19.003,23.691C22.025,21.906 25.047,18.358 26.457,14.924C27.218,13.093 27.979,9.749 27.979,8.144C27.979,7.105 28.046,6.969 29.3,5.726C30.038,5.003 30.732,4.212 30.867,3.986C31.09,3.557 31.068,3.557 29.927,3.941C28.024,4.619 27.755,4.529 28.695,3.512C29.389,2.789 30.218,1.478 30.218,1.094C30.218,1.026 29.882,1.139 29.501,1.343C29.098,1.569 28.203,1.907 27.532,2.111L26.323,2.495L25.226,1.749C24.622,1.343 23.771,0.891 23.323,0.755C22.182,0.439 20.436,0.484 19.406,0.845C16.608,1.862 14.84,4.484 15.042,7.353Z" clip-rule="evenodd" fill-rule="evenodd" fill="#FFFFFF"/>
</svg>
