<svg width="24" height="24" viewBox="0 0 24 24" fill="none" xmlns="http://www.w3.org/2000/svg" xmlns:xlink="http://www.w3.org/1999/xlink">
<path d="M11.978,-0.331C8.752,-0.331 8.347,-0.317 7.08,-0.259C5.815,-0.201 4.952,-0.001 4.196,0.293C3.415,0.596 2.752,1.002 2.092,1.663C1.431,2.323 1.025,2.986 0.721,3.767C0.426,4.522 0.226,5.386 0.169,6.65C0.112,7.917 0.097,8.322 0.097,11.549C0.097,14.775 0.112,15.179 0.169,16.446C0.227,17.711 0.428,18.574 0.721,19.329C1.025,20.111 1.431,20.773 2.091,21.434C2.751,22.094 3.414,22.501 4.195,22.805C4.951,23.099 5.814,23.299 7.079,23.357C8.346,23.414 8.751,23.428 11.977,23.428C15.203,23.428 15.607,23.414 16.874,23.357C18.139,23.299 19.003,23.099 19.759,22.805C20.54,22.501 21.202,22.094 21.862,21.434C22.523,20.773 22.928,20.111 23.233,19.329C23.525,18.574 23.725,17.71 23.785,16.446C23.842,15.179 23.857,14.775 23.857,11.549C23.857,8.322 23.842,7.917 23.785,6.65C23.725,5.386 23.525,4.522 23.233,3.767C22.928,2.986 22.523,2.323 21.862,1.663C21.201,1.002 20.54,0.596 19.758,0.293C19.001,-0.001 18.137,-0.201 16.872,-0.259C15.605,-0.317 15.202,-0.331 11.974,-0.331L11.978,-0.331ZM10.912,1.81C11.229,1.809 11.582,1.81 11.978,1.81C15.15,1.81 15.526,1.821 16.779,1.878C17.937,1.931 18.565,2.125 18.984,2.287C19.539,2.502 19.934,2.76 20.349,3.176C20.765,3.591 21.022,3.987 21.238,4.542C21.401,4.96 21.595,5.589 21.647,6.747C21.704,7.999 21.717,8.376 21.717,11.546C21.717,14.716 21.704,15.092 21.647,16.345C21.594,17.503 21.401,18.132 21.238,18.55C21.023,19.104 20.765,19.499 20.349,19.915C19.934,20.331 19.539,20.588 18.984,20.803C18.566,20.967 17.937,21.16 16.779,21.213C15.526,21.269 15.15,21.282 11.978,21.282C8.806,21.282 8.43,21.269 7.178,21.213C6.019,21.159 5.391,20.966 4.972,20.803C4.417,20.588 4.021,20.33 3.606,19.914C3.19,19.499 2.932,19.104 2.717,18.549C2.554,18.131 2.36,17.502 2.308,16.344C2.251,15.092 2.239,14.715 2.239,11.543C2.239,8.371 2.251,7.996 2.308,6.744C2.361,5.586 2.554,4.957 2.717,4.538C2.932,3.984 3.19,3.588 3.606,3.172C4.021,2.756 4.417,2.499 4.972,2.283C5.391,2.12 6.019,1.927 7.178,1.874C8.274,1.824 8.698,1.809 10.912,1.807L10.912,1.81ZM18.319,3.782C17.532,3.782 16.894,4.42 16.894,5.207C16.894,5.994 17.532,6.633 18.319,6.633C19.106,6.633 19.745,5.994 19.745,5.207C19.745,4.42 19.106,3.782 18.319,3.782ZM11.978,5.448C8.609,5.448 5.877,8.179 5.877,11.549C5.877,14.918 8.609,17.648 11.978,17.648C15.347,17.648 18.078,14.918 18.078,11.549C18.078,8.179 15.347,5.448 11.978,5.448ZM11.978,7.589C14.165,7.589 15.938,9.362 15.938,11.549C15.938,13.735 14.165,15.509 11.978,15.509C9.791,15.509 8.018,13.735 8.018,11.549C8.018,9.362 9.791,7.589 11.978,7.589Z" clip-rule="evenodd" fill-rule="evenodd" fill="#FFFFFF"/>
</svg>
