<svg width="26" height="24" viewBox="0 0 26 24" fill="none" xmlns="http://www.w3.org/2000/svg" xmlns:xlink="http://www.w3.org/1999/xlink">
<path d="M24.679,11.532C24.679,12.335 24.598,13.138 24.437,13.92C24.28,14.683 24.048,15.433 23.744,16.149C23.447,16.853 23.079,17.531 22.649,18.164C22.225,18.792 21.736,19.382 21.199,19.92C20.662,20.455 20.07,20.942 19.442,21.368C18.807,21.795 18.128,22.163 17.424,22.461C16.706,22.764 15.955,22.996 15.192,23.152C14.409,23.313 13.604,23.395 12.799,23.395C11.994,23.395 11.189,23.313 10.407,23.152C9.643,22.996 8.892,22.764 8.175,22.461C7.471,22.163 6.791,21.795 6.156,21.368C5.528,20.942 4.936,20.455 4.4,19.92C3.862,19.382 3.374,18.792 2.949,18.164C2.521,17.531 2.152,16.853 1.854,16.149C1.55,15.433 1.318,14.683 1.16,13.92C1.001,13.138 0.92,12.335 0.92,11.532C0.92,10.728 1.001,9.924 1.16,9.144C1.318,8.38 1.55,7.63 1.854,6.914C2.152,6.21 2.521,5.531 2.949,4.898C3.374,4.269 3.862,3.681 4.4,3.143C4.936,2.607 5.528,2.122 6.156,1.696C6.791,1.267 7.471,0.899 8.175,0.6C8.892,0.297 9.643,0.065 10.407,-0.09C11.189,-0.25 11.994,-0.331 12.799,-0.331C13.604,-0.331 14.409,-0.25 15.192,-0.09C15.955,0.065 16.706,0.297 17.424,0.6C18.128,0.899 18.807,1.267 19.442,1.696C20.07,2.122 20.662,2.607 21.2,3.143C21.736,3.681 22.225,4.269 22.649,4.898C23.079,5.531 23.447,6.21 23.744,6.914C24.048,7.63 24.28,8.38 24.437,9.144C24.598,9.924 24.679,10.728 24.679,11.532ZM8.471,2.369C5.641,3.703 3.53,6.306 2.872,9.443C3.139,9.446 7.367,9.499 12.238,8.207C10.482,5.091 8.606,2.549 8.471,2.369ZM13.078,9.767C7.854,11.328 2.842,11.216 2.662,11.209C2.659,11.318 2.654,11.423 2.654,11.532C2.654,14.135 3.637,16.507 5.253,18.301C5.25,18.296 8.026,13.378 13.501,11.61C13.633,11.566 13.768,11.526 13.901,11.488C13.647,10.912 13.369,10.335 13.078,9.767ZM19.499,3.929C17.713,2.356 15.368,1.402 12.799,1.402C11.975,1.402 11.175,1.502 10.409,1.686C10.561,1.89 12.466,4.414 14.201,7.595C18.029,6.162 19.474,3.966 19.499,3.929ZM14.593,13.167C14.57,13.174 14.548,13.181 14.526,13.189C8.54,15.272 6.585,19.472 6.564,19.518C8.286,20.855 10.446,21.662 12.799,21.662C14.204,21.662 15.542,21.376 16.76,20.859C16.61,19.974 16.02,16.872 14.593,13.167ZM18.468,19.934C20.746,18.399 22.364,15.961 22.816,13.138C22.607,13.071 19.768,12.173 16.494,12.697C17.824,16.349 18.365,19.323 18.468,19.934ZM14.982,9.105C15.218,9.588 15.446,10.08 15.656,10.574C15.731,10.751 15.804,10.925 15.875,11.099C19.361,10.661 22.794,11.398 22.941,11.428C22.918,9.026 22.057,6.822 20.634,5.097C20.615,5.124 18.988,7.471 14.982,9.105Z" clip-rule="evenodd" fill-rule="evenodd" fill="#FFFFFF"/>
</svg>
