<svg width="26" height="18" viewBox="0 0 26 18" fill="none" xmlns="http://www.w3.org/2000/svg" xmlns:xlink="http://www.w3.org/1999/xlink">
<path d="M21.728,-0.109C22.75,0.172 23.555,0.998 23.828,2.048C24.325,3.95 24.325,7.92 24.325,7.92C24.325,7.92 24.325,11.889 23.828,13.792C23.555,14.841 22.75,15.668 21.728,15.949C19.875,16.458 12.445,16.458 12.445,16.458C12.445,16.458 5.015,16.458 3.163,15.949C2.14,15.668 1.335,14.841 1.062,13.792C0.566,11.889 0.566,7.92 0.566,7.92C0.566,7.92 0.566,3.95 1.062,2.048C1.335,0.998 2.14,0.172 3.163,-0.109C5.015,-0.619 12.445,-0.619 12.445,-0.619C12.445,-0.619 19.875,-0.619 21.728,-0.109ZM10.218,4.579L10.218,12.003L16.158,8.291L10.218,4.579Z" clip-rule="evenodd" fill-rule="evenodd" fill="#FFFFFF"/>
</svg>
