<svg width="34" height="34" viewBox="0 0 34 34" fill="none" xmlns="http://www.w3.org/2000/svg" xmlns:xlink="http://www.w3.org/1999/xlink">
<path d="M32.061,-0.061C32.468,0.347 32.606,0.952 32.416,1.496L21.916,31.496C21.713,32.076 21.176,32.474 20.561,32.499C19.947,32.524 19.379,32.171 19.129,31.609L13.364,18.636L0.391,12.871C-0.171,12.621 -0.524,12.053 -0.499,11.439C-0.474,10.824 -0.076,10.287 0.504,10.084L30.504,-0.416C31.048,-0.606 31.653,-0.468 32.061,-0.061ZM16.289,17.832L20.334,26.933L27.413,6.709L16.289,17.832ZM25.291,4.587L5.067,11.666L14.168,15.711L25.291,4.587Z" clip-rule="evenodd" fill-rule="evenodd" fill="#FFFFFF"/>
</svg>
