<svg width="14" height="14" viewBox="0 0 14 14" fill="none" xmlns="http://www.w3.org/2000/svg">
<path fill-rule="evenodd" clip-rule="evenodd" d="M3.7509 0.0802002C5.59477 0.0802002 7.08956 1.57497 7.08956 3.41887V0.0802002H10.4282C12.2721 0.0802002 13.7669 1.57497 13.7669 3.41887C13.7669 5.26274 12.2721 6.75753 10.4282 6.75753C12.2721 6.75753 13.7669 8.25232 13.7669 10.0962C13.7669 11.0118 13.3983 11.8413 12.8015 12.4444L12.789 12.457L12.7779 12.468C12.1746 13.0657 11.3446 13.4349 10.4282 13.4349C9.51814 13.4349 8.69309 13.0707 8.09083 12.4802C8.08302 12.4725 8.0752 12.4647 8.06742 12.457C8.06011 12.4497 8.05283 12.4423 8.04559 12.435C7.45428 11.8326 7.08956 11.007 7.08956 10.0962C7.08956 11.9401 5.59477 13.4349 3.7509 13.4349C1.907 13.4349 0.412231 11.9401 0.412231 10.0962V6.75753H3.7509C1.907 6.75753 0.412231 5.26274 0.412231 3.41887C0.412231 1.57497 1.907 0.0802002 3.7509 0.0802002ZM6.42183 3.41887C6.42183 4.89399 5.22602 6.0898 3.7509 6.0898V0.747933C5.22602 0.747933 6.42183 1.94375 6.42183 3.41887ZM13.0992 10.0962C13.0992 8.62107 11.9033 7.42526 10.4282 7.42526C8.9531 7.42526 7.7573 8.62107 7.7573 10.0962H13.0992ZM1.07996 7.42526V10.0962C1.07996 11.5713 2.27578 12.7671 3.7509 12.7671C5.22602 12.7671 6.42183 11.5713 6.42183 10.0962V7.42526H1.07996ZM7.7573 6.0898V0.747933H10.4282C11.9033 0.747933 13.0992 1.94375 13.0992 3.41887C13.0992 4.89399 11.9033 6.0898 10.4282 6.0898H7.7573Z" fill="#263238"/>
</svg>
