<svg width="12" height="12" viewBox="0 0 12 12" fill="none" xmlns="http://www.w3.org/2000/svg" xmlns:xlink="http://www.w3.org/1999/xlink">
<path d="M10.699,0.216C10.835,0.352 10.881,0.554 10.818,0.735L7.312,10.751C7.244,10.945 7.065,11.078 6.86,11.086C6.655,11.094 6.465,10.977 6.382,10.789L4.457,6.458L0.126,4.533C-0.062,4.45 -0.18,4.26 -0.171,4.055C-0.163,3.85 -0.03,3.67 0.164,3.603L10.18,0.097C10.361,0.033 10.563,0.08 10.699,0.216ZM5.434,6.189L6.784,9.228L9.148,2.476L5.434,6.189ZM8.439,1.767L1.687,4.131L4.725,5.481L8.439,1.767Z" clip-rule="evenodd" fill-rule="evenodd" fill="#FFFFFF"/>
</svg>
